<svg width="34" height="34" viewBox="0 0 34 34" fill="none" xmlns="http://www.w3.org/2000/svg">
<g clip-path="url(#clip0_433_7214)">
<path d="M28.7823 7.11077C26.6961 6.15335 24.4947 5.47001 22.233 5.07781C22.2125 5.07436 22.1915 5.07734 22.1728 5.08634C22.154 5.09535 22.1386 5.10993 22.1285 5.12808C21.8449 5.63079 21.5312 6.28834 21.3121 6.80311C18.8741 6.43314 16.3943 6.43314 13.9564 6.80311C13.7119 6.22966 13.4353 5.67043 13.1279 5.12808C13.1176 5.11013 13.1021 5.09571 13.0835 5.08674C13.0648 5.07777 13.0438 5.07465 13.0234 5.07781C10.7612 5.46792 8.55932 6.1516 6.47407 7.11077C6.45623 7.11758 6.44131 7.13038 6.43185 7.14697C2.26136 13.3786 1.1172 19.4573 1.67822 25.4597C1.68023 25.4878 1.69833 25.516 1.72045 25.5341C4.14899 27.333 6.86537 28.7065 9.75375 29.596C9.77415 29.6024 9.79606 29.6022 9.81631 29.5953C9.83656 29.5884 9.85409 29.5753 9.86636 29.5578C10.4857 28.7132 11.0367 27.8224 11.5112 26.8854C11.5211 26.8661 11.5245 26.8441 11.5209 26.8227C11.5173 26.8013 11.5068 26.7817 11.4911 26.7667C11.4807 26.7569 11.4684 26.7494 11.4549 26.7446C10.5886 26.4117 9.74952 26.0116 8.9454 25.5482C8.92294 25.5354 8.90623 25.5146 8.89875 25.4899C8.89126 25.4651 8.89356 25.4385 8.90518 25.4155C8.91202 25.4005 8.92237 25.3874 8.93534 25.3772C9.10425 25.2506 9.27316 25.1178 9.43403 24.9851C9.44824 24.9737 9.46529 24.9664 9.48336 24.9639C9.50142 24.9614 9.51982 24.9639 9.53658 24.9711C14.803 27.376 20.5037 27.376 25.7058 24.9711C25.7231 24.9635 25.7422 24.9609 25.761 24.9633C25.7798 24.9658 25.7975 24.9734 25.8123 24.9851C25.9732 25.1178 26.1421 25.2506 26.311 25.3772C26.3247 25.3872 26.3357 25.4005 26.343 25.4158C26.3503 25.4311 26.3537 25.4479 26.3529 25.4649C26.3521 25.4818 26.3472 25.4983 26.3384 25.5128C26.3297 25.5273 26.3175 25.5395 26.303 25.5482C25.5007 26.0159 24.6606 26.4154 23.7914 26.7426C23.7776 26.7476 23.765 26.7556 23.7546 26.7661C23.7441 26.7765 23.7361 26.7891 23.7311 26.8029C23.7265 26.8164 23.7246 26.8306 23.7256 26.8448C23.7267 26.8589 23.7306 26.8728 23.7371 26.8854C24.2197 27.8204 24.7727 28.7132 25.38 29.5578C25.3923 29.5753 25.4098 29.5884 25.43 29.5953C25.4503 29.6022 25.4722 29.6024 25.4926 29.596C28.3858 28.7093 31.1066 27.3356 33.538 25.5341C33.5502 25.5257 33.5603 25.5146 33.5676 25.5017C33.5749 25.4888 33.5792 25.4745 33.5802 25.4597C34.2518 18.5203 32.4561 12.4918 28.8226 7.14898C28.8189 7.14015 28.8134 7.13219 28.8065 7.12561C28.7996 7.11903 28.7913 7.11398 28.7823 7.11077ZM12.2975 21.804C10.7109 21.804 9.40588 20.3481 9.40588 18.5625C9.40588 16.7749 10.6868 15.319 12.2975 15.319C13.9202 15.319 15.2132 16.7869 15.1891 18.5625C15.1891 20.3481 13.9082 21.804 12.2975 21.804ZM22.9871 21.804C21.4026 21.804 20.0955 20.3481 20.0955 18.5625C20.0955 16.7749 21.3764 15.319 22.9871 15.319C24.6098 15.319 25.9048 16.7869 25.8787 18.5625C25.8787 20.3481 24.6098 21.804 22.9871 21.804Z" fill="white"/>
</g>
<defs>
<clipPath id="clip0_433_7214">
<rect width="32.1734" height="32.1734" fill="white" transform="translate(1.54517 1.26562)"/>
</clipPath>
</defs>
</svg>
