<svg width="34" height="34" viewBox="0 0 34 34" fill="none" xmlns="http://www.w3.org/2000/svg">
<g clip-path="url(#clip0_433_7209)">
<path d="M17.368 1.26538C8.48006 1.26538 1.28125 8.46419 1.28125 17.3521C1.28125 24.4705 5.88607 30.4829 12.2805 32.6144C13.0849 32.7551 13.3865 32.2725 13.3865 31.8503C13.3865 31.4682 13.3664 30.2014 13.3664 28.8541C9.32461 29.5981 8.27897 27.8688 7.95724 26.9639C7.77626 26.5014 6.99204 25.0737 6.30835 24.6917C5.74532 24.39 4.94098 23.646 6.28824 23.6259C7.55507 23.6058 8.45995 24.7922 8.76158 25.2748C10.2094 27.7079 12.5218 27.0242 13.4468 26.602C13.5876 25.5563 14.0099 24.8525 14.4724 24.4504C10.8931 24.0482 7.1529 22.6607 7.1529 16.5076C7.1529 14.7581 7.77626 13.3103 8.80179 12.1842C8.64092 11.7821 8.07789 10.1332 8.96266 7.92126C8.96266 7.92126 10.3099 7.49899 13.3865 9.57015C14.6734 9.2082 16.0408 9.02722 17.4082 9.02722C18.7756 9.02722 20.1429 9.2082 21.4299 9.57015C24.5065 7.47888 25.8537 7.92126 25.8537 7.92126C26.7385 10.1332 26.1755 11.7821 26.0146 12.1842C27.0401 13.3103 27.6635 14.738 27.6635 16.5076C27.6635 22.6808 23.9032 24.0482 20.3239 24.4504C20.9071 24.9531 21.4098 25.9183 21.4098 27.4264C21.4098 29.578 21.3897 31.3073 21.3897 31.8503C21.3897 32.2725 21.6913 32.7753 22.4956 32.6144C25.6893 31.5366 28.4645 29.4842 30.4304 26.7463C32.3964 24.0083 33.4541 20.7228 33.4547 17.3521C33.4547 8.46419 26.2559 1.26538 17.368 1.26538Z" fill="white"/>
</g>
<defs>
<clipPath id="clip0_433_7209">
<rect width="32.1734" height="32.1734" fill="white" transform="translate(1.27954 1.26562)"/>
</clipPath>
</defs>
</svg>
