<svg width="58" height="15" viewBox="0 0 298 43" fill="none" xmlns="http://www.w3.org/2000/svg">
<path d="M8.4031 35.1929H1.09985C1.07337 35.1929 1.04798 35.1824 1.02925 35.1636C1.01053 35.1449 1.00001 35.1195 1.00001 35.0931V1.52352C0.999697 1.50444 1.00485 1.48568 1.01487 1.46944C1.02488 1.45321 1.03934 1.44018 1.05653 1.43191C1.07371 1.42363 1.09291 1.42045 1.11185 1.42275C1.13079 1.42504 1.14867 1.43271 1.16338 1.44486L24.9216 20.4593C24.9363 20.4715 24.9542 20.4791 24.9732 20.4814C24.9921 20.4837 25.0113 20.4805 25.0285 20.4723C25.0457 20.464 25.0601 20.451 25.0702 20.4347C25.0802 20.4185 25.0853 20.3997 25.085 20.3807L25.082 1.40855C25.082 1.38208 25.0925 1.35668 25.1112 1.33796C25.1299 1.31923 25.1553 1.30872 25.1818 1.30872H32.5183C32.5448 1.30872 32.5702 1.31923 32.5889 1.33796C32.6077 1.35668 32.6182 1.38208 32.6182 1.40855V34.9902C32.6185 35.0093 32.6133 35.028 32.6033 35.0443C32.5933 35.0605 32.5789 35.0735 32.5617 35.0818C32.5445 35.0901 32.5253 35.0933 32.5063 35.091C32.4874 35.0887 32.4695 35.081 32.4548 35.0688L8.66631 15.9545C8.65159 15.9424 8.63371 15.9347 8.61477 15.9324C8.59584 15.9301 8.57664 15.9333 8.55945 15.9416C8.54226 15.9499 8.5278 15.9629 8.51779 15.9791C8.50777 15.9954 8.50262 16.0141 8.50294 16.0332V35.0931C8.50294 35.1195 8.49242 35.1449 8.4737 35.1636C8.45497 35.1824 8.42958 35.1929 8.4031 35.1929Z" fill="black"/>
<path d="M8.4031 35.1929C8.42958 35.1929 8.45497 35.1824 8.4737 35.1636C8.49242 35.1449 8.50294 35.1195 8.50294 35.0931V16.0332C8.50262 16.0141 8.50777 15.9954 8.51779 15.9791C8.5278 15.9629 8.54226 15.9499 8.55945 15.9416C8.57664 15.9333 8.59584 15.9301 8.61477 15.9324C8.63371 15.9347 8.65159 15.9424 8.66631 15.9545L32.4548 35.0688C32.4695 35.081 32.4874 35.0887 32.5063 35.091C32.5253 35.0933 32.5445 35.0901 32.5617 35.0818C32.5789 35.0735 32.5933 35.0605 32.6033 35.0443C32.6133 35.028 32.6185 35.0093 32.6182 34.9902V1.40855C32.6182 1.38208 32.6077 1.35668 32.5889 1.33796C32.5702 1.31923 32.5448 1.30872 32.5183 1.30872H25.1818C25.1553 1.30872 25.1299 1.31923 25.1112 1.33796C25.0925 1.35668 25.082 1.38208 25.082 1.40855L25.085 20.3807C25.0853 20.3997 25.0802 20.4185 25.0702 20.4347C25.0601 20.451 25.0457 20.464 25.0285 20.4723C25.0113 20.4805 24.9921 20.4837 24.9732 20.4814C24.9542 20.4791 24.9363 20.4715 24.9216 20.4593L1.16338 1.44486C1.14867 1.43271 1.13079 1.42504 1.11185 1.42275C1.09291 1.42045 1.07371 1.42363 1.05653 1.43191C1.03934 1.44018 1.02488 1.45321 1.01487 1.46944C1.00485 1.48568 0.999697 1.50444 1.00001 1.52352V35.0931C1.00001 35.1195 1.01053 35.1449 1.02925 35.1636C1.04798 35.1824 1.07337 35.1929 1.09985 35.1929H8.4031Z" stroke="black" stroke-width="0.605074"/>
<path d="M53.531 20.0718C53.4362 20.2694 53.4987 20.3683 53.7186 20.3683H65.2997C65.4429 20.3683 65.4842 20.3037 65.4237 20.1746C64.144 17.4125 61.515 15.8484 58.544 16.2961C56.2589 16.643 54.5879 17.9016 53.531 20.0718Z" stroke="black" stroke-width="0.605074"/>
<path d="M53.5523 25.1969C53.8931 26.0259 54.3893 26.7368 55.0408 27.3298C57.7001 29.7531 61.5393 29.7562 64.0957 27.1543C64.1784 27.0676 64.2802 27.0242 64.4013 27.0242H71.5139C71.5348 27.0242 71.5554 27.0292 71.5739 27.039C71.5924 27.0488 71.6082 27.063 71.6199 27.0804C71.6315 27.0978 71.6387 27.1177 71.6408 27.1385C71.6429 27.1594 71.6399 27.1804 71.6319 27.1997C70.1757 30.7576 67.7665 33.2353 64.4043 34.6331C56.2176 38.0305 47.5651 32.4336 46.5848 24.014C45.9132 18.2446 49.2714 12.8473 54.5718 10.6661C56.855 9.72415 59.2763 9.48212 61.8357 9.93996C63.7316 10.2788 65.569 11.1027 67.348 12.4117C71.1962 15.2465 72.9994 20.2474 72.2309 24.9579C72.2128 25.0749 72.1452 25.1334 72.0282 25.1334H53.5946C53.587 25.1333 53.5795 25.135 53.5728 25.1386C53.5661 25.1421 53.5603 25.1473 53.5561 25.1536C53.5519 25.1599 53.5493 25.1672 53.5487 25.1748C53.548 25.1823 53.5492 25.19 53.5523 25.1969ZM53.5311 20.0719C53.4363 20.2696 53.4988 20.3684 53.7187 20.3684H65.2998C65.443 20.3684 65.4843 20.3039 65.4238 20.1748C64.1441 17.4126 61.5151 15.8485 58.5441 16.2963C56.259 16.6432 54.588 17.9017 53.5311 20.0719Z" fill="black"/>
<path d="M53.5523 25.1969C53.5492 25.19 53.548 25.1823 53.5487 25.1748C53.5493 25.1672 53.5519 25.1599 53.5561 25.1536C53.5603 25.1473 53.5661 25.1421 53.5728 25.1386C53.5795 25.135 53.587 25.1333 53.5946 25.1334H72.0282C72.1452 25.1334 72.2128 25.0749 72.2309 24.9579C72.9994 20.2474 71.1962 15.2465 67.348 12.4117C65.569 11.1027 63.7316 10.2788 61.8357 9.93996C59.2763 9.48212 56.855 9.72415 54.5718 10.6661C49.2714 12.8473 45.9132 18.2446 46.5848 24.014C47.5651 32.4336 56.2176 38.0305 64.4043 34.6331C67.7665 33.2353 70.1757 30.7576 71.6319 27.1997C71.6399 27.1804 71.6429 27.1594 71.6408 27.1385C71.6387 27.1177 71.6315 27.0978 71.6199 27.0804C71.6082 27.063 71.5924 27.0488 71.5739 27.039C71.5554 27.0292 71.5348 27.0242 71.5139 27.0242H64.4013C64.2802 27.0242 64.1784 27.0676 64.0957 27.1543C61.5393 29.7562 57.7001 29.7531 55.0408 27.3298C54.3893 26.7368 53.8931 26.0259 53.5523 25.1969Z" stroke="black" stroke-width="0.605074"/>
<path d="M104.019 33.8978L104.016 35.0384C104.016 35.1413 104.068 35.1927 104.171 35.1927H110.291C110.408 35.1927 110.467 35.1342 110.467 35.0172C110.442 31.0459 110.444 27.1926 110.473 23.4573C110.507 18.657 108.767 14.9277 105.254 12.2694C103.592 11.0129 101.761 10.2203 99.7597 9.89151C90.8742 8.4363 83.22 16.2236 85.0262 25.0758C86.076 30.2311 90.0816 34.2639 95.3064 35.1836C98.2874 35.708 101.126 35.2411 103.823 33.7829C103.954 33.7123 104.019 33.7506 104.019 33.8978Z" stroke="black" stroke-width="0.605074"/>
<path d="M103.995 22.5406C103.995 21.6999 103.83 20.8675 103.508 20.0908C103.186 19.3141 102.715 18.6084 102.12 18.0139C101.526 17.4195 100.82 16.9479 100.044 16.6262C99.2668 16.3045 98.4344 16.1389 97.5937 16.1389C96.753 16.1389 95.9206 16.3045 95.1439 16.6262C94.3672 16.9479 93.6615 17.4195 93.067 18.0139C92.4726 18.6084 92.001 19.3141 91.6793 20.0908C91.3576 20.8675 91.192 21.6999 91.192 22.5406C91.192 24.2384 91.8665 25.8667 93.067 27.0673C94.2676 28.2678 95.8959 28.9423 97.5937 28.9423C99.2915 28.9423 100.92 28.2678 102.12 27.0673C103.321 25.8667 103.995 24.2384 103.995 22.5406Z" stroke="black" stroke-width="0.605074"/>
<path d="M103.823 33.7829C101.126 35.2411 98.2874 35.708 95.3064 35.1836C90.0816 34.2639 86.076 30.2311 85.0262 25.0758C83.22 16.2236 90.8742 8.4363 99.7597 9.89151C101.761 10.2203 103.592 11.0129 105.254 12.2694C108.767 14.9277 110.507 18.657 110.473 23.4573C110.444 27.1926 110.442 31.0459 110.467 35.0172C110.467 35.1342 110.408 35.1927 110.291 35.1927H104.171C104.068 35.1927 104.016 35.1413 104.016 35.0384L104.019 33.8978C104.019 33.7506 103.954 33.7123 103.823 33.7829ZM103.995 22.5406C103.995 21.6999 103.83 20.8675 103.508 20.0908C103.186 19.3141 102.715 18.6084 102.12 18.0139C101.526 17.4195 100.82 16.9479 100.043 16.6262C99.2667 16.3045 98.4342 16.1389 97.5936 16.1389C96.7529 16.1389 95.9204 16.3045 95.1437 16.6262C94.367 16.9479 93.6613 17.4195 93.0669 18.0139C92.4724 18.6084 92.0009 19.3141 91.6792 20.0908C91.3575 20.8675 91.1919 21.6999 91.1919 22.5406C91.1919 24.2384 91.8663 25.8667 93.0669 27.0673C94.2674 28.2678 95.8957 28.9423 97.5936 28.9423C99.2914 28.9423 100.92 28.2678 102.12 27.0673C103.321 25.8667 103.995 24.2384 103.995 22.5406Z" fill="black"/>
<path d="M133.534 16.6896C134.119 16.3891 134.738 16.2358 135.392 16.2297C135.511 16.2297 135.57 16.1692 135.57 16.0482V9.86737C135.57 9.74837 135.512 9.6919 135.395 9.69795C131.419 9.90973 128.355 11.6009 126.201 14.7715C124.906 16.6775 124.328 18.765 124.337 21.0854C124.355 25.7002 124.358 30.2937 124.346 34.866C124.346 34.983 124.405 35.0415 124.522 35.0415H130.724C130.735 35.0415 130.747 35.0391 130.758 35.0346C130.769 35.03 130.779 35.0233 130.788 35.0149C130.796 35.0065 130.803 34.9965 130.807 34.9855C130.812 34.9745 130.814 34.9627 130.814 34.9507C130.83 30.2917 130.835 25.7002 130.826 21.1762C130.822 19.119 131.725 17.6234 133.534 16.6896Z" stroke="black" stroke-width="0.605074"/>
<path d="M133.534 16.6896C131.725 17.6234 130.822 19.119 130.826 21.1762C130.835 25.7002 130.83 30.2917 130.814 34.9507C130.814 34.9627 130.812 34.9745 130.807 34.9855C130.803 34.9965 130.796 35.0065 130.788 35.0149C130.779 35.0233 130.769 35.03 130.758 35.0346C130.747 35.0391 130.735 35.0415 130.724 35.0415H124.522C124.405 35.0415 124.346 34.983 124.346 34.866C124.358 30.2937 124.355 25.7002 124.337 21.0854C124.328 18.765 124.906 16.6775 126.201 14.7715C128.355 11.6009 131.419 9.90973 135.395 9.69795C135.512 9.6919 135.57 9.74837 135.57 9.86737V16.0482C135.57 16.1692 135.511 16.2297 135.392 16.2297C134.738 16.2358 134.119 16.3891 133.534 16.6896Z" fill="black"/>
<path d="M160.541 6.30079C160.552 6.5045 160.58 6.70619 160.626 6.90587C161.007 8.56579 161.418 10.255 161.857 11.9734C162.69 15.2327 163.725 18.4305 164.962 21.5668C164.968 21.5826 164.971 21.5997 164.969 21.6167C164.967 21.6337 164.961 21.65 164.951 21.6641C164.942 21.6782 164.929 21.6897 164.914 21.6975C164.899 21.7054 164.882 21.7093 164.865 21.709C163.404 21.6969 161.95 21.7302 160.502 21.8089C160.194 21.827 159.876 21.8502 159.549 21.8784C156.453 22.1467 153.474 22.5844 150.612 23.1915C150.33 23.252 150.285 23.1763 150.479 22.9645C151.836 21.472 153.13 19.8595 154.361 18.127C154.558 17.8507 154.57 17.5663 154.397 17.2738C154.357 17.2032 154.29 17.1589 154.197 17.1407C153.838 17.0721 153.551 17.1861 153.335 17.4826C151.615 19.8605 149.805 22.0065 147.907 23.9206C147.844 23.9841 147.796 24.0607 147.766 24.1451C147.735 24.2294 147.724 24.3193 147.732 24.4085C147.741 24.4977 147.769 24.584 147.814 24.6612C147.859 24.7384 147.921 24.8047 147.995 24.8554L152.406 27.8929C152.729 28.1147 153.027 28.0875 153.302 27.8112C153.344 27.7709 153.375 27.7235 153.395 27.669C153.517 27.3584 153.439 27.1093 153.163 26.9217L149.862 24.6678C149.852 24.6609 149.845 24.6513 149.84 24.6402C149.836 24.6291 149.835 24.617 149.838 24.6053C149.84 24.5937 149.846 24.5831 149.855 24.5748C149.864 24.5666 149.874 24.561 149.886 24.5589C151.35 24.2483 152.773 23.969 154.155 23.7209C154.754 23.612 155.344 23.6906 155.958 23.5968C158.83 23.1612 161.791 22.9403 164.84 22.9343C164.854 22.9341 164.867 22.9372 164.879 22.9435C164.891 22.9498 164.901 22.9589 164.908 22.9701C164.915 22.9813 164.919 22.9942 164.92 23.0075C164.921 23.0208 164.919 23.0341 164.913 23.0462C164.683 23.5363 164.499 24.0577 164.359 24.6104C163.218 29.1303 162.016 33.7702 160.753 38.5301C160.697 38.7378 160.634 38.7398 160.566 38.5361L158.829 33.4686C158.706 33.1137 158.459 32.9695 158.088 33.036C158.019 33.0481 157.954 33.0713 157.891 33.1056C157.785 33.1657 157.703 33.2604 157.658 33.3739C157.614 33.4873 157.61 33.6126 157.646 33.7288C158.239 35.5925 158.868 37.4329 159.534 39.2501C159.824 40.0398 160.275 41.1591 161.389 40.5571C163.305 39.5224 165.314 38.4202 167.418 37.2504C167.506 37.2028 167.576 37.1292 167.62 37.0398C167.664 36.9503 167.679 36.8495 167.663 36.7512C167.635 36.5757 167.569 36.4396 167.467 36.3427C167.235 36.1209 166.978 36.0876 166.698 36.2429L162.154 38.7661C162.027 38.8367 161.981 38.8014 162.015 38.6602C162.838 35.3625 163.741 31.8965 164.726 28.262C164.935 27.4834 165.126 26.6747 165.297 25.8356C165.483 24.9199 165.756 24.0749 166.117 23.3004C166.129 23.2745 166.147 23.2514 166.168 23.2324C166.19 23.2134 166.215 23.1989 166.242 23.1899C166.269 23.1808 166.298 23.1774 166.326 23.1797C166.355 23.1821 166.382 23.1902 166.408 23.2036L170.389 25.3092C170.43 25.3327 170.478 25.3413 170.525 25.3334C170.612 25.3193 170.689 25.3405 170.755 25.3969C170.816 25.4474 170.882 25.4907 170.955 25.527C172.718 26.3842 174.521 27.307 176.364 28.2953C177.881 29.1081 179.335 30.0227 180.727 31.0393C180.826 31.1119 180.815 31.1613 180.696 31.1875L174.924 32.4279C174.626 32.4925 174.457 32.676 174.419 32.9785C174.411 33.0491 174.419 33.1167 174.443 33.1812C174.578 33.5463 174.836 33.6865 175.218 33.6018C177.684 33.0491 180.217 32.5207 182.817 32.0165C183.37 31.9075 183.616 31.6433 183.555 31.2238C183.545 31.1558 183.523 31.0911 183.489 31.0332L180.128 25.3637C179.938 25.041 179.662 24.926 179.299 25.0188C179.224 25.0369 179.165 25.0712 179.12 25.1216C178.91 25.3556 178.866 25.5825 178.987 25.8023C179.776 27.2122 180.595 28.5867 181.444 29.9259C181.522 30.051 181.501 30.0711 181.38 29.9864C179.841 28.8953 178.345 27.9645 176.891 27.194C173.532 25.4151 170.186 23.7179 166.852 22.1023C166.839 22.0965 166.828 22.0872 166.82 22.0754C166.811 22.0636 166.807 22.0498 166.806 22.0355C166.805 22.0211 166.808 22.0068 166.814 21.9941C166.821 21.9813 166.831 21.9706 166.843 21.9631C172.115 18.5445 176.852 14.5691 181.053 10.0371C181.1 9.98671 181.113 9.99477 181.093 10.0613L179.792 14.315C179.685 14.668 179.788 14.9423 180.1 15.1379C180.151 15.1702 180.206 15.1903 180.267 15.1984C180.545 15.2388 180.737 15.1288 180.842 14.8686C181.293 13.7654 181.673 12.6147 181.979 11.4167C182.183 10.618 182.429 9.82031 182.717 9.02363C182.753 8.92613 182.765 8.82163 182.752 8.71869C182.739 8.61574 182.702 8.51728 182.644 8.43138C182.586 8.34548 182.508 8.27458 182.417 8.2245C182.327 8.17441 182.225 8.14657 182.121 8.14324L174.818 7.90424C174.376 7.89012 174.149 8.10291 174.134 8.5426L174.131 8.67874C174.119 8.99338 174.271 9.15473 174.585 9.1628L179.922 9.31709C179.934 9.3175 179.946 9.32155 179.957 9.32875C179.967 9.33594 179.975 9.34596 179.979 9.35756C179.984 9.36916 179.985 9.38184 179.982 9.394C179.979 9.40617 179.973 9.4173 179.964 9.426C179.012 10.382 178.038 11.3471 177.042 12.3213C176.031 13.3055 175.061 14.194 174.131 14.9866C171.618 17.1226 168.982 19.0951 166.223 20.9043C166.201 20.9192 166.175 20.9288 166.148 20.9323C166.122 20.9359 166.094 20.9334 166.069 20.925C166.043 20.9165 166.02 20.9024 166 20.8836C165.981 20.8648 165.966 20.8419 165.957 20.8165C164.206 16.0949 162.824 11.3169 161.809 6.48232C161.767 6.28668 161.813 6.26247 161.948 6.40971C162.85 7.38791 163.662 8.39839 164.384 9.44113C164.452 9.53899 164.552 9.61055 164.668 9.64383C164.922 9.71644 165.115 9.69425 165.246 9.57727C165.538 9.31104 165.574 9.01455 165.352 8.68781C164.095 6.84435 162.642 5.23284 160.992 3.85327C160.717 3.62334 160.523 3.39039 160.124 3.4993C160.03 3.52551 159.944 3.57796 159.878 3.65069C159.812 3.72342 159.767 3.81351 159.749 3.91075C159.279 6.4682 158.516 8.90463 157.462 11.2201C157.427 11.2962 157.412 11.3802 157.42 11.4637C157.428 11.5471 157.458 11.6269 157.507 11.695C157.624 11.8564 157.763 11.9502 157.924 11.9764C158.231 12.0248 158.453 11.9088 158.59 11.6285C159.328 10.1097 159.849 8.68983 160.151 7.36875C160.236 6.99764 160.338 6.63762 160.457 6.28869C160.505 6.14549 160.533 6.14953 160.541 6.30079Z" fill="#FF0000" stroke="#FF0000" stroke-width="0.605074"/>
<path d="M160.457 6.28869C160.338 6.63762 160.236 6.99764 160.151 7.36875C159.849 8.68983 159.328 10.1097 158.59 11.6285C158.453 11.9088 158.231 12.0248 157.924 11.9764C157.763 11.9502 157.624 11.8564 157.507 11.695C157.458 11.6269 157.428 11.5471 157.42 11.4637C157.412 11.3802 157.427 11.2962 157.462 11.2201C158.516 8.90463 159.279 6.4682 159.749 3.91075C159.767 3.81351 159.812 3.72342 159.878 3.65069C159.944 3.57796 160.03 3.52551 160.124 3.4993C160.523 3.39039 160.717 3.62334 160.992 3.85327C162.642 5.23284 164.095 6.84435 165.352 8.68781C165.574 9.01455 165.538 9.31104 165.246 9.57727C165.115 9.69425 164.922 9.71644 164.668 9.64383C164.552 9.61055 164.452 9.53899 164.384 9.44113C163.662 8.39839 162.85 7.38791 161.948 6.40971C161.813 6.26247 161.767 6.28668 161.809 6.48232C162.824 11.3169 164.206 16.0949 165.957 20.8165C165.966 20.8419 165.981 20.8648 166 20.8836C166.02 20.9024 166.043 20.9165 166.069 20.925C166.094 20.9334 166.122 20.9359 166.148 20.9323C166.175 20.9288 166.201 20.9192 166.223 20.9043C168.982 19.0951 171.618 17.1226 174.131 14.9866C175.061 14.194 176.031 13.3055 177.042 12.3213C178.038 11.3471 179.012 10.382 179.964 9.426C179.973 9.4173 179.979 9.40617 179.982 9.394C179.985 9.38184 179.984 9.36916 179.979 9.35756C179.975 9.34596 179.967 9.33594 179.957 9.32875C179.946 9.32155 179.934 9.3175 179.922 9.31709L174.585 9.1628C174.271 9.15473 174.119 8.99338 174.131 8.67874L174.134 8.5426C174.149 8.10291 174.376 7.89012 174.818 7.90424L182.121 8.14324C182.225 8.14657 182.327 8.17441 182.417 8.2245C182.508 8.27458 182.586 8.34548 182.644 8.43138C182.702 8.51728 182.739 8.61574 182.752 8.71869C182.765 8.82163 182.753 8.92613 182.717 9.02363C182.429 9.82031 182.183 10.618 181.979 11.4167C181.673 12.6147 181.293 13.7654 180.842 14.8686C180.737 15.1288 180.545 15.2388 180.267 15.1984C180.206 15.1903 180.151 15.1702 180.1 15.1379C179.788 14.9423 179.685 14.668 179.792 14.315L181.093 10.0613C181.113 9.99477 181.1 9.98671 181.053 10.0371C176.852 14.5691 172.115 18.5445 166.843 21.9631C166.831 21.9706 166.821 21.9813 166.814 21.9941C166.808 22.0068 166.805 22.0211 166.806 22.0355C166.807 22.0498 166.811 22.0636 166.82 22.0754C166.828 22.0872 166.839 22.0965 166.852 22.1023C170.186 23.7179 173.532 25.4151 176.891 27.194C178.345 27.9645 179.841 28.8953 181.38 29.9864C181.501 30.0711 181.522 30.051 181.444 29.9259C180.595 28.5867 179.776 27.2122 178.987 25.8023C178.866 25.5825 178.91 25.3556 179.12 25.1216C179.165 25.0712 179.224 25.0369 179.299 25.0188C179.662 24.926 179.938 25.041 180.128 25.3637L183.489 31.0332C183.523 31.0911 183.545 31.1558 183.555 31.2238C183.616 31.6433 183.37 31.9075 182.817 32.0165C180.217 32.5207 177.684 33.0491 175.218 33.6018C174.836 33.6865 174.578 33.5463 174.443 33.1812C174.419 33.1167 174.411 33.0491 174.419 32.9785C174.457 32.676 174.626 32.4925 174.924 32.4279L180.696 31.1875C180.815 31.1613 180.826 31.1119 180.727 31.0393C179.335 30.0227 177.881 29.1081 176.364 28.2953C174.521 27.307 172.718 26.3842 170.955 25.527C170.882 25.4907 170.816 25.4474 170.755 25.3969C170.689 25.3405 170.612 25.3193 170.525 25.3334C170.478 25.3413 170.43 25.3327 170.389 25.3092L166.408 23.2036C166.382 23.1902 166.355 23.1821 166.326 23.1797C166.298 23.1774 166.269 23.1808 166.242 23.1899C166.215 23.1989 166.19 23.2134 166.168 23.2324C166.147 23.2514 166.129 23.2745 166.117 23.3004C165.756 24.0749 165.483 24.9199 165.297 25.8356C165.126 26.6747 164.935 27.4834 164.726 28.262C163.741 31.8965 162.838 35.3625 162.015 38.6602C161.981 38.8014 162.027 38.8367 162.154 38.7661L166.698 36.2429C166.978 36.0876 167.235 36.1209 167.467 36.3427C167.569 36.4396 167.635 36.5757 167.663 36.7512C167.679 36.8495 167.664 36.9503 167.62 37.0398C167.576 37.1292 167.506 37.2028 167.418 37.2504C165.314 38.4202 163.305 39.5224 161.389 40.5571C160.275 41.1591 159.824 40.0398 159.534 39.2501C158.868 37.4329 158.239 35.5925 157.646 33.7288C157.61 33.6126 157.614 33.4873 157.658 33.3739C157.703 33.2604 157.785 33.1657 157.891 33.1056C157.954 33.0713 158.019 33.0481 158.088 33.036C158.459 32.9695 158.706 33.1137 158.829 33.4686L160.566 38.5361C160.634 38.7398 160.697 38.7378 160.753 38.5301C162.016 33.7702 163.218 29.1303 164.359 24.6104C164.499 24.0577 164.683 23.5363 164.913 23.0462C164.919 23.0341 164.921 23.0208 164.92 23.0075C164.919 22.9942 164.915 22.9813 164.908 22.9701C164.901 22.9589 164.891 22.9498 164.879 22.9435C164.867 22.9372 164.854 22.9341 164.84 22.9343C161.791 22.9403 158.83 23.1612 155.958 23.5968C155.344 23.6906 154.754 23.612 154.155 23.7209C152.773 23.969 151.35 24.2483 149.886 24.5589C149.874 24.561 149.864 24.5666 149.855 24.5748C149.846 24.5831 149.84 24.5937 149.838 24.6053C149.835 24.617 149.836 24.6291 149.84 24.6402C149.845 24.6513 149.852 24.6609 149.862 24.6678L153.163 26.9217C153.439 27.1093 153.517 27.3584 153.395 27.669C153.375 27.7235 153.344 27.7709 153.302 27.8112C153.027 28.0875 152.729 28.1147 152.406 27.8929L147.995 24.8554C147.921 24.8047 147.859 24.7384 147.814 24.6612C147.769 24.584 147.741 24.4977 147.732 24.4085C147.724 24.3193 147.735 24.2294 147.766 24.1451C147.796 24.0607 147.844 23.9841 147.907 23.9206C149.805 22.0065 151.615 19.8605 153.335 17.4826C153.551 17.1861 153.838 17.0721 154.197 17.1407C154.29 17.1589 154.357 17.2032 154.397 17.2738C154.57 17.5663 154.558 17.8507 154.361 18.127C153.13 19.8595 151.836 21.472 150.479 22.9645C150.285 23.1763 150.33 23.252 150.612 23.1915C153.474 22.5844 156.453 22.1467 159.549 21.8784C159.876 21.8502 160.194 21.827 160.502 21.8089C161.95 21.7302 163.404 21.6969 164.865 21.709C164.882 21.7093 164.899 21.7054 164.914 21.6975C164.929 21.6897 164.942 21.6782 164.951 21.6641C164.961 21.65 164.967 21.6337 164.969 21.6167C164.971 21.5997 164.968 21.5826 164.962 21.5668C163.725 18.4305 162.69 15.2327 161.857 11.9734C161.418 10.255 161.007 8.56579 160.626 6.90587C160.58 6.70619 160.552 6.5045 160.541 6.30079C160.533 6.14953 160.505 6.14549 160.457 6.28869Z" fill="#FF0000"/>
<path d="M160.542 6.30079C160.552 6.5045 160.58 6.70619 160.627 6.90587C161.008 8.56579 161.419 10.255 161.858 11.9734C162.691 15.2327 163.726 18.4305 164.962 21.5668C164.969 21.5826 164.971 21.5997 164.97 21.6167C164.968 21.6337 164.962 21.65 164.952 21.6641C164.943 21.6782 164.93 21.6897 164.915 21.6975C164.899 21.7054 164.882 21.7093 164.865 21.709C163.405 21.6969 161.951 21.7302 160.503 21.8089C160.194 21.827 159.877 21.8502 159.55 21.8784C156.454 22.1467 153.475 22.5844 150.613 23.1915C150.331 23.252 150.286 23.1763 150.48 22.9645C151.837 21.472 153.131 19.8595 154.361 18.127C154.559 17.8507 154.571 17.5663 154.398 17.2738C154.357 17.2032 154.291 17.1589 154.198 17.1407C153.839 17.0721 153.552 17.1861 153.336 17.4826C151.615 19.8605 149.806 22.0065 147.908 23.9206C147.845 23.9841 147.797 24.0607 147.766 24.1451C147.736 24.2294 147.725 24.3193 147.733 24.4085C147.742 24.4977 147.769 24.584 147.815 24.6612C147.86 24.7384 147.922 24.8047 147.996 24.8554L152.407 27.8929C152.73 28.1147 153.028 28.0875 153.302 27.8112C153.345 27.7709 153.376 27.7235 153.396 27.669C153.517 27.3584 153.44 27.1093 153.163 26.9217L149.863 24.6678C149.853 24.6609 149.845 24.6513 149.841 24.6402C149.837 24.6291 149.836 24.617 149.839 24.6053C149.841 24.5937 149.847 24.5831 149.856 24.5748C149.864 24.5666 149.875 24.561 149.887 24.5589C151.351 24.2483 152.774 23.969 154.156 23.7209C154.755 23.612 155.345 23.6906 155.959 23.5968C158.831 23.1612 161.792 22.9403 164.841 22.9343C164.855 22.9341 164.868 22.9372 164.88 22.9435C164.891 22.9498 164.901 22.9589 164.909 22.9701C164.916 22.9813 164.92 22.9942 164.921 23.0075C164.922 23.0208 164.919 23.0341 164.914 23.0462C164.684 23.5363 164.499 24.0577 164.36 24.6104C163.219 29.1303 162.017 33.7702 160.754 38.5301C160.697 38.7378 160.635 38.7398 160.566 38.5361L158.83 33.4686C158.707 33.1137 158.46 32.9695 158.089 33.036C158.02 33.0481 157.954 33.0713 157.892 33.1056C157.786 33.1657 157.704 33.2604 157.659 33.3739C157.615 33.4873 157.61 33.6126 157.647 33.7288C158.24 35.5925 158.869 37.4329 159.535 39.2501C159.825 40.0398 160.276 41.1591 161.389 40.5571C163.305 39.5224 165.315 38.4202 167.419 37.2504C167.506 37.2028 167.577 37.1292 167.621 37.0398C167.665 36.9503 167.68 36.8495 167.664 36.7512C167.636 36.5757 167.57 36.4396 167.467 36.3427C167.235 36.1209 166.979 36.0876 166.699 36.2429L162.155 38.7661C162.028 38.8367 161.981 38.8014 162.016 38.6602C162.838 35.3625 163.742 31.8965 164.726 28.262C164.936 27.4834 165.127 26.6747 165.298 25.8356C165.484 24.9199 165.757 24.0749 166.118 23.3004C166.13 23.2745 166.147 23.2514 166.169 23.2324C166.19 23.2134 166.215 23.1989 166.242 23.1899C166.27 23.1808 166.298 23.1774 166.327 23.1797C166.355 23.1821 166.383 23.1902 166.408 23.2036L170.39 25.3092C170.431 25.3327 170.479 25.3413 170.526 25.3334C170.613 25.3193 170.689 25.3405 170.756 25.3969C170.816 25.4474 170.883 25.4907 170.955 25.527C172.718 26.3842 174.521 27.307 176.365 28.2953C177.882 29.1081 179.336 30.0227 180.727 31.0393C180.826 31.1119 180.816 31.1613 180.697 31.1875L174.925 32.4279C174.626 32.4925 174.458 32.676 174.42 32.9785C174.411 33.0491 174.42 33.1167 174.444 33.1812C174.579 33.5463 174.837 33.6865 175.218 33.6018C177.685 33.0491 180.218 32.5207 182.818 32.0165C183.371 31.9075 183.617 31.6433 183.556 31.2238C183.546 31.1558 183.524 31.0911 183.49 31.0332L180.128 25.3637C179.939 25.041 179.663 24.926 179.299 25.0188C179.225 25.0369 179.165 25.0712 179.121 25.1216C178.911 25.3556 178.867 25.5825 178.988 25.8023C179.776 27.2122 180.595 28.5867 181.444 29.9259C181.523 30.051 181.502 30.0711 181.381 29.9864C179.842 28.8953 178.345 27.9645 176.891 27.194C173.533 25.4151 170.187 23.7179 166.853 22.1023C166.84 22.0965 166.829 22.0872 166.82 22.0754C166.812 22.0636 166.807 22.0498 166.806 22.0355C166.805 22.0211 166.808 22.0068 166.815 21.9941C166.822 21.9813 166.832 21.9706 166.844 21.9631C172.116 18.5445 176.853 14.5691 181.054 10.0371C181.101 9.98671 181.114 9.99477 181.094 10.0613L179.793 14.315C179.686 14.668 179.789 14.9423 180.101 15.1379C180.152 15.1702 180.207 15.1903 180.268 15.1984C180.546 15.2388 180.738 15.1288 180.842 14.8686C181.294 13.7654 181.673 12.6147 181.98 11.4167C182.184 10.618 182.43 9.82031 182.718 9.02363C182.754 8.92613 182.765 8.82163 182.753 8.71869C182.74 8.61574 182.703 8.51728 182.645 8.43138C182.587 8.34548 182.509 8.27458 182.418 8.2245C182.327 8.17441 182.226 8.14657 182.122 8.14324L174.819 7.90424C174.377 7.89012 174.149 8.10291 174.135 8.5426L174.132 8.67874C174.12 8.99338 174.271 9.15473 174.586 9.1628L179.923 9.31709C179.935 9.3175 179.947 9.32155 179.957 9.32875C179.968 9.33594 179.975 9.34596 179.98 9.35756C179.984 9.36916 179.985 9.38184 179.983 9.394C179.98 9.40617 179.974 9.4173 179.965 9.426C179.013 10.382 178.039 11.3471 177.043 12.3213C176.032 13.3055 175.062 14.194 174.132 14.9866C171.619 17.1226 168.983 19.0951 166.224 20.9043C166.201 20.9192 166.176 20.9288 166.149 20.9323C166.122 20.9359 166.095 20.9334 166.069 20.925C166.044 20.9165 166.02 20.9024 166.001 20.8836C165.982 20.8648 165.967 20.8419 165.958 20.8165C164.207 16.0949 162.824 11.3169 161.81 6.48232C161.767 6.28668 161.814 6.26247 161.949 6.40971C162.851 7.38791 163.662 8.39839 164.384 9.44113C164.453 9.53899 164.553 9.61055 164.669 9.64383C164.923 9.71644 165.116 9.69425 165.247 9.57727C165.539 9.31104 165.574 9.01455 165.352 8.68781C164.096 6.84435 162.643 5.23284 160.993 3.85327C160.718 3.62334 160.524 3.39039 160.125 3.4993C160.03 3.52551 159.945 3.57796 159.879 3.65069C159.813 3.72342 159.768 3.81351 159.75 3.91075C159.28 6.4682 158.517 8.90463 157.462 11.2201C157.427 11.2962 157.413 11.3802 157.421 11.4637C157.429 11.5471 157.459 11.6269 157.508 11.695C157.625 11.8564 157.764 11.9502 157.925 11.9764C158.232 12.0248 158.454 11.9088 158.591 11.6285C159.329 10.1097 159.849 8.68983 160.152 7.36875C160.237 6.99764 160.338 6.63762 160.457 6.28869C160.506 6.14549 160.534 6.14953 160.542 6.30079Z" fill="#0029FF" stroke="#0029FF" stroke-width="0.605074"/>
<path d="M160.542 6.29909C160.552 6.50279 160.58 6.70449 160.626 6.90416C161.008 8.56408 161.418 10.2532 161.858 11.9717C162.691 15.231 163.725 18.4288 164.962 21.5651C164.968 21.5809 164.971 21.598 164.969 21.615C164.967 21.632 164.961 21.6482 164.952 21.6624C164.942 21.6765 164.929 21.6879 164.914 21.6958C164.899 21.7036 164.882 21.7076 164.865 21.7073C163.405 21.6952 161.95 21.7285 160.502 21.8071C160.194 21.8253 159.876 21.8485 159.549 21.8767C156.453 22.145 153.474 22.5826 150.612 23.1897C150.33 23.2502 150.286 23.1746 150.479 22.9628C151.837 21.4703 153.131 19.8578 154.361 18.1253C154.558 17.8489 154.571 17.5646 154.397 17.2721C154.357 17.2015 154.29 17.1571 154.197 17.139C153.838 17.0704 153.551 17.1844 153.335 17.4809C151.615 19.8588 149.806 22.0048 147.908 23.9189C147.845 23.9824 147.796 24.059 147.766 24.1434C147.736 24.2277 147.724 24.3176 147.733 24.4068C147.741 24.496 147.769 24.5823 147.814 24.6595C147.86 24.7367 147.922 24.803 147.995 24.8537L152.406 27.8912C152.729 28.113 153.028 28.0858 153.302 27.8095C153.344 27.7691 153.376 27.7218 153.396 27.6673C153.517 27.3567 153.439 27.1076 153.163 26.92L149.862 24.6661C149.852 24.6592 149.845 24.6496 149.841 24.6385C149.836 24.6274 149.835 24.6153 149.838 24.6036C149.841 24.592 149.847 24.5814 149.855 24.5731C149.864 24.5649 149.875 24.5593 149.886 24.5572C151.351 24.2466 152.774 23.9673 154.155 23.7192C154.754 23.6103 155.344 23.6889 155.958 23.5951C158.83 23.1595 161.791 22.9386 164.841 22.9326C164.854 22.9324 164.867 22.9355 164.879 22.9418C164.891 22.9481 164.901 22.9572 164.908 22.9684C164.915 22.9796 164.92 22.9925 164.921 23.0058C164.921 23.0191 164.919 23.0324 164.913 23.0445C164.683 23.5346 164.499 24.056 164.36 24.6086C163.218 29.1285 162.016 33.7685 160.753 38.5284C160.697 38.7361 160.634 38.7381 160.566 38.5344L158.829 33.4669C158.706 33.112 158.459 32.9677 158.088 33.0343C158.02 33.0464 157.954 33.0696 157.891 33.1039C157.785 33.164 157.703 33.2587 157.659 33.3722C157.614 33.4856 157.61 33.6109 157.646 33.7271C158.239 35.5907 158.869 37.4312 159.534 39.2484C159.825 40.038 160.275 41.1574 161.389 40.5554C163.305 39.5207 165.315 38.4185 167.418 37.2486C167.506 37.2011 167.576 37.1275 167.62 37.0381C167.664 36.9486 167.679 36.8478 167.663 36.7495C167.635 36.574 167.57 36.4378 167.467 36.341C167.235 36.1192 166.979 36.0859 166.698 36.2412L162.154 38.7644C162.027 38.835 161.981 38.7997 162.015 38.6585C162.838 35.3608 163.742 31.8947 164.726 28.2603C164.936 27.4817 165.126 26.673 165.298 25.8339C165.483 24.9182 165.756 24.0732 166.117 23.2987C166.13 23.2728 166.147 23.2497 166.168 23.2307C166.19 23.2117 166.215 23.1972 166.242 23.1882C166.269 23.1791 166.298 23.1757 166.326 23.178C166.355 23.1804 166.383 23.1885 166.408 23.2018L166.853 22.1006C166.839 22.0948 166.828 22.0855 166.82 22.0737C166.812 22.0619 166.807 22.0481 166.806 22.0338C166.805 22.0252 166.434 21.419 166.138 20.9317C166.115 20.9334 166.091 20.9306 166.069 20.9232C166.043 20.9148 166.02 20.9007 166.001 20.8819C165.981 20.8631 165.966 20.8402 165.957 20.8148C165.897 20.654 165.838 20.4932 165.78 20.3323C165.778 20.3296 165.778 20.3281 165.778 20.3278C164.112 15.7647 162.789 11.149 161.809 6.48061C161.767 6.28497 161.813 6.26076 161.948 6.408C162.85 7.3862 163.662 8.39668 164.384 9.43942C164.452 9.53728 164.553 9.60884 164.668 9.64212C164.922 9.71473 165.115 9.69255 165.246 9.57556C165.539 9.30933 165.574 9.01284 165.352 8.6861C164.095 6.84264 162.642 5.23113 160.992 3.85156C160.717 3.62163 160.524 3.38868 160.124 3.49759C160.03 3.5238 159.945 3.57625 159.878 3.64898C159.812 3.72171 159.767 3.8118 159.749 3.90904C159.279 6.46649 158.517 8.90292 157.462 11.2183C157.427 11.2945 157.413 11.3785 157.421 11.4619C157.429 11.5454 157.458 11.6252 157.507 11.6933C157.624 11.8547 157.763 11.9485 157.925 11.9747C158.231 12.0231 158.453 11.9071 158.59 11.6268C159.329 10.108 159.849 8.68812 160.151 7.36704C160.236 6.99593 160.338 6.63591 160.457 6.28698C160.505 6.14378 160.534 6.14782 160.542 6.29909Z" fill="#FF0000"/>
<path d="M165.778 20.3278C165.785 20.315 166.211 20.91 166.223 20.9026C166.201 20.9175 166.175 20.927 166.148 20.9306C166.145 20.9311 166.141 20.9315 166.138 20.9317M165.778 20.3278C165.778 20.3281 165.778 20.3296 165.78 20.3323M165.778 20.3278C164.112 15.7647 162.789 11.149 161.809 6.48061M161.809 6.48061C161.767 6.28497 161.813 6.26076 161.948 6.408C162.85 7.3862 163.662 8.39668 164.384 9.43942C164.452 9.53728 164.553 9.60884 164.668 9.64212C164.922 9.71473 165.115 9.69255 165.246 9.57556C165.539 9.30933 165.574 9.01284 165.352 8.6861C164.095 6.84264 162.642 5.23113 160.992 3.85156C160.717 3.62163 160.524 3.38868 160.124 3.49759C160.03 3.5238 159.945 3.57625 159.878 3.64898C159.812 3.72171 159.767 3.8118 159.749 3.90904C159.279 6.46649 158.517 8.90292 157.462 11.2183C157.427 11.2945 157.413 11.3785 157.421 11.4619C157.429 11.5454 157.458 11.6252 157.507 11.6933C157.624 11.8547 157.763 11.9485 157.925 11.9747C158.231 12.0231 158.453 11.9071 158.59 11.6268C159.329 10.108 159.849 8.68812 160.151 7.36704C160.236 6.99593 160.338 6.63591 160.457 6.28698C160.505 6.14378 160.534 6.14782 160.542 6.29909C160.552 6.50279 160.58 6.70449 160.626 6.90416C161.008 8.56408 161.418 10.2532 161.858 11.9717C162.691 15.231 163.725 18.4288 164.962 21.5651C164.968 21.5809 164.971 21.598 164.969 21.615C164.967 21.632 164.961 21.6482 164.952 21.6624C164.942 21.6765 164.929 21.6879 164.914 21.6958C164.899 21.7036 164.882 21.7076 164.865 21.7073C163.405 21.6952 161.95 21.7285 160.502 21.8071C160.194 21.8253 159.876 21.8485 159.549 21.8767C156.453 22.145 153.474 22.5826 150.612 23.1897C150.33 23.2502 150.286 23.1746 150.479 22.9628C151.837 21.4703 153.131 19.8578 154.361 18.1253C154.558 17.8489 154.571 17.5646 154.397 17.2721C154.357 17.2015 154.29 17.1571 154.197 17.139C153.838 17.0704 153.551 17.1844 153.335 17.4809C151.615 19.8588 149.806 22.0048 147.908 23.9189C147.845 23.9824 147.796 24.059 147.766 24.1434C147.736 24.2277 147.724 24.3176 147.733 24.4068C147.741 24.496 147.769 24.5823 147.814 24.6595C147.86 24.7367 147.922 24.803 147.995 24.8537L152.406 27.8912C152.729 28.113 153.028 28.0858 153.302 27.8095C153.344 27.7691 153.376 27.7218 153.396 27.6673C153.517 27.3567 153.439 27.1076 153.163 26.92L149.862 24.6661C149.852 24.6592 149.845 24.6496 149.841 24.6385C149.836 24.6274 149.835 24.6153 149.838 24.6036C149.841 24.592 149.847 24.5814 149.855 24.5731C149.864 24.5649 149.875 24.5593 149.886 24.5572C151.351 24.2466 152.774 23.9673 154.155 23.7192C154.754 23.6103 155.344 23.6889 155.958 23.5951C158.83 23.1595 161.791 22.9386 164.841 22.9326C164.854 22.9324 164.867 22.9355 164.879 22.9418C164.891 22.9481 164.901 22.9572 164.908 22.9684C164.915 22.9796 164.92 22.9925 164.921 23.0058C164.921 23.0191 164.919 23.0324 164.913 23.0445C164.683 23.5346 164.499 24.056 164.36 24.6086C163.218 29.1285 162.016 33.7685 160.753 38.5284C160.697 38.7361 160.634 38.7381 160.566 38.5344L158.829 33.4669C158.706 33.112 158.459 32.9677 158.088 33.0343C158.02 33.0464 157.954 33.0696 157.891 33.1039C157.785 33.164 157.703 33.2587 157.659 33.3722C157.614 33.4856 157.61 33.6109 157.646 33.7271C158.239 35.5907 158.869 37.4312 159.534 39.2484C159.825 40.038 160.275 41.1574 161.389 40.5554C163.305 39.5207 165.315 38.4185 167.418 37.2486C167.506 37.2011 167.576 37.1275 167.62 37.0381C167.664 36.9486 167.679 36.8478 167.663 36.7495C167.635 36.574 167.57 36.4378 167.467 36.341C167.235 36.1192 166.979 36.0859 166.698 36.2412L162.154 38.7644C162.027 38.835 161.981 38.7997 162.015 38.6585C162.838 35.3608 163.742 31.8947 164.726 28.2603C164.936 27.4817 165.126 26.673 165.298 25.8339C165.483 24.9182 165.756 24.0732 166.117 23.2987C166.13 23.2728 166.147 23.2497 166.168 23.2307C166.19 23.2117 166.215 23.1972 166.242 23.1882C166.269 23.1791 166.298 23.1757 166.326 23.178C166.355 23.1804 166.383 23.1885 166.408 23.2018L166.853 22.1006C166.839 22.0948 166.828 22.0855 166.82 22.0737C166.812 22.0619 166.807 22.0481 166.806 22.0338C166.805 22.0252 166.434 21.419 166.138 20.9317M161.809 6.48061C162.789 11.1505 164.113 15.7677 165.78 20.3323M166.138 20.9317C166.115 20.9334 166.091 20.9306 166.069 20.9232C166.043 20.9148 166.02 20.9007 166.001 20.8819C165.981 20.8631 165.966 20.8402 165.957 20.8148C165.897 20.654 165.838 20.4932 165.78 20.3323M166.138 20.9317C165.953 20.6273 165.797 20.3693 165.78 20.3323" stroke="#FF0000" stroke-width="0.605074"/>
<path d="M219.456 15.9999C220.738 13.5977 221.235 11.3196 220.639 8.62099C219.973 5.6057 218.299 3.4113 215.617 2.03778C214.259 1.33993 212.674 0.994027 210.861 1.00008C206.292 1.01016 201.788 1.01016 197.346 1.00008C197.233 1.00008 197.177 1.05655 197.177 1.1695V34.8056C197.177 34.8701 197.209 34.9014 197.274 34.8994C201.943 34.8732 206.621 34.8772 211.308 34.9115C213.428 34.9256 215.01 34.7713 216.055 34.4486C221.389 32.7967 224.245 27.6203 223.122 22.1837C222.624 19.7614 221.418 17.7778 219.504 16.2328C219.423 16.1683 219.407 16.0906 219.456 15.9999Z" stroke="black" stroke-width="0.605074"/>
<path d="M219.504 16.2328C221.418 17.7778 222.624 19.7614 223.122 22.1837C224.245 27.6203 221.389 32.7967 216.055 34.4486C215.01 34.7713 213.428 34.9256 211.308 34.9115C206.621 34.8772 201.943 34.8732 197.274 34.8994C197.209 34.9014 197.177 34.8701 197.177 34.8056V1.1695C197.177 1.05655 197.233 1.00008 197.346 1.00008C201.788 1.01016 206.292 1.01016 210.861 1.00008C212.674 0.994027 214.259 1.33993 215.617 2.03778C218.299 3.4113 219.973 5.6057 220.639 8.62099C221.235 11.3196 220.738 13.5977 219.456 15.9999C219.407 16.0906 219.423 16.1683 219.504 16.2328ZM204.232 7.63169L204.22 13.8761C204.22 13.9146 204.235 13.9515 204.262 13.9787C204.29 14.006 204.327 14.0213 204.365 14.0213L210.839 14.0334C211.629 14.0349 212.387 13.7011 212.946 13.1054C213.506 12.5096 213.821 11.7008 213.822 10.8567V10.6873C213.823 10.2693 213.747 9.85529 213.598 9.46882C213.449 9.08235 213.231 8.73103 212.955 8.43493C212.679 8.13882 212.351 7.90373 211.99 7.74307C211.63 7.58241 211.243 7.49933 210.852 7.49858L204.377 7.48647C204.339 7.48647 204.302 7.50177 204.275 7.52901C204.247 7.55624 204.232 7.59318 204.232 7.63169ZM204.22 20.7588L204.232 28.2254C204.232 28.2727 204.251 28.3181 204.284 28.3516C204.318 28.3851 204.363 28.4039 204.411 28.4039L212.594 28.3918C213.082 28.391 213.565 28.2903 214.016 28.0953C214.466 27.9002 214.875 27.6148 215.22 27.2552C215.564 26.8956 215.837 26.4689 216.023 25.9995C216.209 25.53 216.304 25.0271 216.303 24.5193V24.4286C216.302 23.4032 215.909 22.4204 215.211 21.6965C214.513 20.9725 213.567 20.5667 212.582 20.5682L204.398 20.5803C204.351 20.5803 204.306 20.5991 204.272 20.6326C204.239 20.666 204.22 20.7114 204.22 20.7588Z" fill="black"/>
<path d="M204.231 7.63191L204.219 13.8763C204.219 13.9148 204.234 13.9517 204.262 13.979C204.289 14.0062 204.326 14.0215 204.364 14.0215L210.838 14.0336C211.628 14.0351 212.386 13.7013 212.945 13.1056C213.505 12.5099 213.82 11.701 213.822 10.857V10.6875C213.822 10.2696 213.746 9.85551 213.597 9.46904C213.448 9.08257 213.23 8.73125 212.954 8.43515C212.678 8.13904 212.35 7.90394 211.989 7.74329C211.629 7.58263 211.242 7.49955 210.851 7.4988L204.376 7.48669C204.338 7.48669 204.301 7.50199 204.274 7.52923C204.246 7.55646 204.231 7.5934 204.231 7.63191Z" stroke="black" stroke-width="0.605074"/>
<path d="M204.219 20.759L204.231 28.2256C204.231 28.2729 204.25 28.3183 204.283 28.3518C204.317 28.3853 204.362 28.4041 204.41 28.4041L212.593 28.392C213.081 28.3912 213.564 28.2905 214.015 28.0954C214.465 27.9004 214.874 27.6149 215.219 27.2554C215.563 26.8958 215.836 26.4691 216.022 25.9996C216.208 25.5302 216.303 25.0273 216.302 24.5195V24.4287C216.301 23.4033 215.908 22.4206 215.21 21.6966C214.512 20.9727 213.566 20.5668 212.581 20.5684L204.397 20.5805C204.35 20.5805 204.305 20.5993 204.271 20.6327C204.238 20.6662 204.219 20.7116 204.219 20.759Z" stroke="black" stroke-width="0.605074"/>
<path d="M247.295 23.1248C247.288 23.1412 247.277 23.1552 247.262 23.1651C247.247 23.1751 247.23 23.1805 247.213 23.1809C247.195 23.1812 247.178 23.1763 247.163 23.1669C247.148 23.1575 247.136 23.1439 247.128 23.1279L241.22 9.83438C241.213 9.81842 241.202 9.80481 241.187 9.79515C241.173 9.7855 241.156 9.78021 241.138 9.77992H234.01C233.995 9.78017 233.981 9.7841 233.968 9.79137C233.955 9.79864 233.944 9.80902 233.936 9.82159C233.927 9.83416 233.923 9.84853 233.921 9.86343C233.92 9.87833 233.923 9.89329 233.929 9.90699L243.586 31.6019C243.591 31.6134 243.593 31.6257 243.593 31.6382C243.593 31.6507 243.591 31.6631 243.586 31.6745L238.893 42.4781C238.887 42.4921 238.885 42.5073 238.886 42.5225C238.887 42.5376 238.893 42.5522 238.901 42.5648C238.909 42.5775 238.921 42.5878 238.934 42.5948C238.948 42.6019 238.963 42.6055 238.978 42.6052H246.103C246.121 42.6055 246.138 42.6005 246.153 42.5908C246.169 42.5811 246.18 42.5672 246.188 42.5508L260.358 9.90699C260.364 9.89305 260.367 9.87782 260.366 9.86268C260.364 9.84754 260.359 9.83297 260.351 9.82032C260.342 9.80767 260.331 9.79735 260.317 9.79029C260.304 9.78323 260.289 9.77966 260.274 9.77992H253.152C253.134 9.77962 253.116 9.78463 253.101 9.79432C253.086 9.80401 253.074 9.81795 253.067 9.83438L247.295 23.1248Z" stroke="black" stroke-width="0.605074"/>
<path d="M247.295 23.1248L253.067 9.83438C253.074 9.81795 253.086 9.80401 253.101 9.79432C253.116 9.78463 253.134 9.77962 253.152 9.77992H260.274C260.289 9.77966 260.304 9.78323 260.317 9.79029C260.331 9.79735 260.342 9.80767 260.351 9.82032C260.359 9.83297 260.364 9.84754 260.366 9.86268C260.367 9.87782 260.364 9.89305 260.358 9.90699L246.188 42.5508C246.18 42.5672 246.169 42.5811 246.153 42.5908C246.138 42.6005 246.121 42.6055 246.103 42.6052H238.978C238.963 42.6055 238.948 42.6019 238.934 42.5948C238.921 42.5878 238.909 42.5775 238.901 42.5648C238.893 42.5522 238.887 42.5376 238.886 42.5225C238.885 42.5073 238.887 42.4921 238.893 42.4781L243.586 31.6745C243.591 31.6631 243.593 31.6507 243.593 31.6382C243.593 31.6257 243.591 31.6134 243.586 31.6019L233.929 9.90699C233.923 9.89329 233.92 9.87833 233.921 9.86343C233.923 9.84853 233.927 9.83416 233.936 9.82159C233.944 9.80902 233.955 9.79864 233.968 9.79137C233.981 9.7841 233.995 9.78017 234.01 9.77992H241.138C241.156 9.78021 241.173 9.7855 241.187 9.79515C241.202 9.80481 241.213 9.81842 241.22 9.83438L247.128 23.1279C247.136 23.1439 247.148 23.1575 247.163 23.1669C247.178 23.1763 247.195 23.1812 247.213 23.1809C247.23 23.1805 247.247 23.1751 247.262 23.1651C247.277 23.1552 247.288 23.1412 247.295 23.1248Z" fill="black"/>
<path fill-rule="evenodd" clip-rule="evenodd" d="M271.354 9.47745H278.468C278.544 9.4778 278.617 9.49965 278.681 9.5404C278.744 9.58119 278.795 9.63921 278.826 9.70758L278.827 9.70955L284.543 22.5648L290.127 9.71814C290.157 9.64838 290.206 9.58853 290.269 9.54581C290.332 9.50269 290.407 9.47896 290.484 9.47751L290.487 9.47745H297.608L297.611 9.47751C297.676 9.47872 297.739 9.49574 297.796 9.52713C297.852 9.55848 297.9 9.60322 297.936 9.6575C297.971 9.7118 297.992 9.77387 297.998 9.83823C298.004 9.90271 297.994 9.96761 297.969 10.0272L297.967 10.0306L283.798 42.6649C283.798 42.6656 283.797 42.6664 283.797 42.6671C283.767 42.737 283.718 42.7968 283.655 42.8395C283.592 42.8826 283.517 42.9063 283.44 42.9078L283.437 42.9078H276.313L276.31 42.9078C276.245 42.9066 276.182 42.8895 276.125 42.8581C276.069 42.8267 276.021 42.7819 275.985 42.7278C275.95 42.6737 275.929 42.6117 275.923 42.547C275.917 42.4826 275.927 42.4177 275.952 42.358L275.953 42.3547L280.605 31.6443L270.989 10.0401C270.988 10.0392 270.988 10.0383 270.988 10.0374C270.96 9.97693 270.948 9.91046 270.953 9.84413C270.958 9.77687 270.98 9.71199 271.018 9.65564C271.055 9.59929 271.106 9.55338 271.165 9.52222C271.224 9.49194 271.288 9.47657 271.354 9.47745ZM271.67 10.0825L281.192 31.4757C281.214 31.5232 281.227 31.5747 281.229 31.6274C281.231 31.6825 281.222 31.7374 281.202 31.7886L281.2 31.7934L276.636 42.3027H283.296L297.285 10.0825H290.628L284.911 23.2373C284.881 23.3073 284.832 23.3674 284.77 23.4104C284.706 23.4543 284.63 23.4784 284.553 23.4798C284.475 23.4811 284.399 23.4597 284.333 23.4181C284.268 23.3764 284.216 23.3165 284.184 23.2457L284.184 23.2448L278.331 10.0825H271.67Z" fill="black"/>
<path d="M284.631 23.1189L290.404 9.83755C290.411 9.82079 290.423 9.80643 290.438 9.79623C290.453 9.78602 290.47 9.78041 290.488 9.78007H297.604C297.619 9.78035 297.634 9.78438 297.648 9.79181C297.661 9.79923 297.673 9.80983 297.681 9.82266C297.689 9.83549 297.694 9.85018 297.696 9.86543C297.697 9.88068 297.695 9.89604 297.689 9.91016L283.518 42.5479C283.511 42.5646 283.499 42.579 283.484 42.5892C283.469 42.5994 283.451 42.605 283.433 42.6054H276.315C276.299 42.6051 276.284 42.601 276.271 42.5936C276.257 42.5862 276.246 42.5756 276.238 42.5628C276.229 42.5499 276.224 42.5352 276.223 42.52C276.222 42.5047 276.224 42.4894 276.23 42.4753L280.919 31.6777C280.924 31.6656 280.926 31.6526 280.926 31.6396C280.925 31.6266 280.922 31.6138 280.916 31.6021L271.262 9.91318C271.256 9.89869 271.253 9.88273 271.254 9.86681C271.255 9.85089 271.26 9.83553 271.269 9.8222C271.278 9.80887 271.29 9.79801 271.304 9.79063C271.318 9.78326 271.334 9.77962 271.35 9.78007H278.466C278.483 9.78015 278.501 9.78531 278.516 9.79496C278.531 9.80461 278.543 9.81833 278.55 9.83452L284.459 23.122C284.466 23.1387 284.479 23.1529 284.494 23.1627C284.51 23.1726 284.528 23.1777 284.546 23.1774C284.564 23.177 284.582 23.1713 284.597 23.1609C284.613 23.1506 284.624 23.1359 284.631 23.1189Z" fill="black"/>
</svg>
