  <svg width="58" height="15" viewBox="0 0 167 25" fill="none" xmlns="http://www.w3.org/2000/svg">
<path d="M5.11337 19.9967H1.05548C1.04077 19.9967 1.02666 19.9908 1.01625 19.9804C1.00585 19.97 1.00001 19.9559 1.00001 19.9412V1.28903C0.999832 1.27843 1.0027 1.268 1.00826 1.25898C1.01382 1.24996 1.02186 1.24272 1.03141 1.23813C1.04096 1.23353 1.05162 1.23176 1.06215 1.23304C1.07267 1.23431 1.08261 1.23857 1.09078 1.24532L14.2915 11.8103C14.2997 11.817 14.3096 11.8213 14.3202 11.8226C14.3307 11.8238 14.3413 11.8221 14.3509 11.8175C14.3604 11.8129 14.3685 11.8056 14.374 11.7966C14.3796 11.7876 14.3825 11.7772 14.3823 11.7666L14.3806 1.22515C14.3806 1.21044 14.3865 1.19633 14.3969 1.18593C14.4073 1.17552 14.4214 1.16968 14.4361 1.16968H18.5125C18.5272 1.16968 18.5413 1.17552 18.5517 1.18593C18.5621 1.19633 18.5679 1.21044 18.5679 1.22515V19.884C18.5681 19.8946 18.5652 19.9051 18.5597 19.9141C18.5541 19.9231 18.5461 19.9303 18.5365 19.9349C18.527 19.9395 18.5163 19.9413 18.5058 19.94C18.4953 19.9388 18.4853 19.9345 18.4772 19.9277L5.25961 9.30731C5.25144 9.30056 5.2415 9.2963 5.23098 9.29502C5.22046 9.29375 5.20979 9.29551 5.20024 9.30011C5.19069 9.30471 5.18266 9.31194 5.17709 9.32097C5.17153 9.32999 5.16866 9.34041 5.16884 9.35101V19.9412C5.16884 19.9559 5.16299 19.97 5.15259 19.9804C5.14219 19.9908 5.12808 19.9967 5.11337 19.9967Z" fill="white"/>
<path d="M5.11337 19.9967C5.12808 19.9967 5.14219 19.9908 5.15259 19.9804C5.16299 19.97 5.16884 19.9559 5.16884 19.9412V9.35101C5.16866 9.34041 5.17153 9.32999 5.17709 9.32097C5.18266 9.31195 5.19069 9.30471 5.20024 9.30011C5.20979 9.29551 5.22046 9.29375 5.23098 9.29502C5.2415 9.2963 5.25144 9.30056 5.25961 9.30731L18.4772 19.9277C18.4853 19.9345 18.4953 19.9388 18.5058 19.94C18.5163 19.9413 18.527 19.9395 18.5365 19.9349C18.5461 19.9303 18.5541 19.9231 18.5597 19.9141C18.5652 19.9051 18.5681 19.8946 18.5679 19.884V1.22515C18.5679 1.21044 18.5621 1.19633 18.5517 1.18593C18.5413 1.17552 18.5272 1.16968 18.5125 1.16968H14.4361C14.4214 1.16968 14.4073 1.17552 14.3969 1.18593C14.3865 1.19633 14.3806 1.21044 14.3806 1.22515L14.3823 11.7666C14.3825 11.7772 14.3796 11.7876 14.374 11.7966C14.3685 11.8056 14.3604 11.8129 14.3509 11.8175C14.3413 11.8221 14.3307 11.8238 14.3202 11.8226C14.3096 11.8213 14.2997 11.817 14.2915 11.8103L1.09078 1.24532C1.08261 1.23857 1.07267 1.23431 1.06215 1.23304C1.05162 1.23176 1.04096 1.23353 1.03141 1.23813C1.02186 1.24272 1.01382 1.24996 1.00826 1.25898C1.0027 1.268 0.999832 1.27843 1.00001 1.28903V19.9412C1.00001 19.9559 1.00585 19.97 1.01625 19.9804C1.02666 19.9908 1.04077 19.9967 1.05548 19.9967H5.11337Z" stroke="white" stroke-width="0.336196"/>
<path d="M30.1879 11.5948C30.1352 11.7046 30.1699 11.7596 30.2921 11.7596H36.726C36.8056 11.7596 36.8286 11.7237 36.7949 11.652C36.084 10.1174 34.6234 9.24849 32.9729 9.49724C31.7033 9.68997 30.775 10.3892 30.1879 11.5948Z" stroke="white" stroke-width="0.336196"/>
<path d="M30.1999 14.4431C30.3893 14.9037 30.665 15.2987 31.0269 15.6282C32.5045 16.9746 34.6377 16.9763 36.0581 15.5307C36.1041 15.4825 36.1606 15.4584 36.2279 15.4584H40.1799C40.1915 15.4583 40.2029 15.4612 40.2132 15.4666C40.2235 15.472 40.2323 15.4799 40.2387 15.4896C40.2452 15.4992 40.2492 15.5103 40.2504 15.5219C40.2516 15.5334 40.2499 15.5451 40.2454 15.5559C39.4363 17.5327 38.0977 18.9094 36.2296 19.686C31.6808 21.5738 26.8732 18.464 26.3286 13.7858C25.9554 10.5802 27.8213 7.5813 30.7664 6.36931C32.035 5.84597 33.3803 5.71149 34.8024 5.96588C35.8558 6.15415 36.8767 6.61193 37.8652 7.33924C40.0034 8.91432 41.0052 11.693 40.5783 14.3103C40.5682 14.3753 40.5306 14.4078 40.4656 14.4078H30.2234C30.2192 14.4077 30.215 14.4087 30.2113 14.4106C30.2075 14.4126 30.2044 14.4155 30.202 14.419C30.1997 14.4225 30.1983 14.4265 30.1979 14.4307C30.1975 14.435 30.1982 14.4392 30.1999 14.4431ZM30.1881 11.5955C30.1355 11.7053 30.1702 11.7602 30.2923 11.7602H36.7271C36.8067 11.7602 36.8297 11.7244 36.7961 11.6526C36.085 10.1179 34.6242 9.24883 32.9735 9.49762C31.7038 9.69037 30.7753 10.3897 30.1881 11.5955Z" fill="white"/>
<path d="M30.1999 14.4431C30.1982 14.4392 30.1975 14.435 30.1979 14.4308C30.1983 14.4265 30.1997 14.4225 30.202 14.419C30.2044 14.4155 30.2075 14.4126 30.2113 14.4106C30.215 14.4087 30.2192 14.4077 30.2234 14.4078H40.4656C40.5306 14.4078 40.5682 14.3753 40.5783 14.3103C41.0052 11.693 40.0034 8.91432 37.8652 7.33924C36.8767 6.61193 35.8558 6.15415 34.8024 5.96588C33.3803 5.71149 32.035 5.84597 30.7664 6.36931C27.8213 7.5813 25.9554 10.5802 26.3286 13.7858C26.8732 18.464 31.6808 21.5738 36.2296 19.686C38.0977 18.9094 39.4363 17.5327 40.2454 15.5559C40.2499 15.5451 40.2516 15.5334 40.2504 15.5219C40.2492 15.5103 40.2452 15.4992 40.2387 15.4896C40.2323 15.4799 40.2235 15.472 40.2132 15.4666C40.2029 15.4612 40.1915 15.4583 40.1799 15.4584H36.2279C36.1606 15.4584 36.1041 15.4825 36.0581 15.5307C34.6377 16.9763 32.5045 16.9746 31.0269 15.6282C30.665 15.2987 30.3893 14.9037 30.1999 14.4431Z" stroke="white" stroke-width="0.336196"/>
<path d="M58.2402 19.2775L58.2385 19.9112C58.2385 19.9683 58.2671 19.9969 58.3243 19.9969H61.7249C61.7899 19.9969 61.8224 19.9644 61.8224 19.8994C61.8089 17.6929 61.81 15.5518 61.8257 13.4764C61.8448 10.8092 60.8782 8.73716 58.926 7.26013C58.0026 6.56197 56.9851 6.12155 55.8734 5.93888C50.9363 5.13033 46.6835 9.45717 47.687 14.3757C48.2703 17.2401 50.4959 19.4809 53.399 19.9919C55.0553 20.2832 56.6326 20.0238 58.1309 19.2136C58.2038 19.1744 58.2402 19.1957 58.2402 19.2775Z" stroke="white" stroke-width="0.336196"/>
<path d="M58.2263 12.9657C58.2263 12.4986 58.1343 12.0362 57.9555 11.6047C57.7768 11.1732 57.5148 10.7811 57.1846 10.4509C56.8543 10.1206 56.4623 9.85863 56.0308 9.6799C55.5993 9.50117 55.1368 9.40918 54.6698 9.40918C54.2027 9.40918 53.7403 9.50117 53.3088 9.6799C52.8773 9.85863 52.4852 10.1206 52.155 10.4509C51.8247 10.7811 51.5627 11.1732 51.384 11.6047C51.2053 12.0362 51.1133 12.4986 51.1133 12.9657C51.1133 13.9089 51.488 14.8135 52.155 15.4805C52.8219 16.1475 53.7265 16.5222 54.6698 16.5222C55.613 16.5222 56.5176 16.1475 57.1846 15.4805C57.8516 14.8135 58.2263 13.9089 58.2263 12.9657Z" stroke="white" stroke-width="0.336196"/>
<path d="M58.1309 19.2136C56.6326 20.0238 55.0553 20.2832 53.399 19.9919C50.4959 19.4809 48.2703 17.2401 47.687 14.3757C46.6835 9.45717 50.9363 5.13033 55.8734 5.93888C56.9851 6.12155 58.0026 6.56197 58.926 7.26013C60.8782 8.73716 61.8448 10.8092 61.8257 13.4764C61.81 15.5518 61.8089 17.6929 61.8224 19.8994C61.8224 19.9644 61.7899 19.9969 61.7249 19.9969H58.3243C58.2671 19.9969 58.2385 19.9683 58.2385 19.9112L58.2402 19.2775C58.2402 19.1957 58.2038 19.1744 58.1309 19.2136ZM58.2268 12.9671C58.2268 12.5 58.1348 12.0374 57.956 11.6059C57.7772 11.1743 57.5152 10.7822 57.1849 10.4519C56.8547 10.1216 56.4625 9.85962 56.031 9.68086C55.5994 9.50211 55.1369 9.41011 54.6698 9.41011C54.2027 9.41011 53.7402 9.50211 53.3086 9.68086C52.8771 9.85962 52.4849 10.1216 52.1547 10.4519C51.8244 10.7822 51.5624 11.1743 51.3836 11.6059C51.2049 12.0374 51.1128 12.5 51.1128 12.9671C51.1128 13.9104 51.4876 14.8151 52.1547 15.4822C52.8217 16.1493 53.7264 16.524 54.6698 16.524C55.6132 16.524 56.5179 16.1493 57.1849 15.4822C57.852 14.8151 58.2268 13.9104 58.2268 12.9671Z" fill="white"/>
<path d="M74.6395 9.71556C74.9645 9.54858 75.3086 9.46341 75.6717 9.46005C75.7378 9.46005 75.7708 9.42643 75.7708 9.35919V5.92494C75.7708 5.85883 75.7383 5.82745 75.6733 5.83081C73.4645 5.94848 71.7617 6.88815 70.5648 8.64981C69.8454 9.70883 69.5243 10.8687 69.5294 12.158C69.5394 14.7221 69.5411 17.2744 69.5344 19.8149C69.5344 19.8799 69.5669 19.9124 69.6319 19.9124H73.0779C73.0845 19.9124 73.0911 19.9111 73.0972 19.9085C73.1033 19.906 73.1089 19.9023 73.1136 19.8976C73.1182 19.8929 73.122 19.8874 73.1245 19.8813C73.127 19.8751 73.1283 19.8686 73.1283 19.862C73.1373 17.2732 73.1395 14.7221 73.1351 12.2085C73.1328 11.0654 73.6343 10.2344 74.6395 9.71556Z" stroke="white" stroke-width="0.336196"/>
<path d="M74.6395 9.71556C73.6343 10.2344 73.1328 11.0654 73.1351 12.2085C73.1395 14.7221 73.1373 17.2732 73.1283 19.862C73.1283 19.8686 73.127 19.8751 73.1245 19.8813C73.122 19.8874 73.1182 19.8929 73.1136 19.8976C73.1089 19.9023 73.1033 19.906 73.0972 19.9085C73.0911 19.9111 73.0845 19.9124 73.0779 19.9124H69.6319C69.5669 19.9124 69.5344 19.8799 69.5344 19.8149C69.5411 17.2744 69.5394 14.7221 69.5294 12.158C69.5243 10.8687 69.8454 9.70883 70.5648 8.64981C71.7617 6.88815 73.4645 5.94848 75.6733 5.83081C75.7383 5.82745 75.7708 5.85883 75.7708 5.92494V9.35919C75.7708 9.42643 75.7378 9.46005 75.6717 9.46005C75.3086 9.46341 74.9645 9.54858 74.6395 9.71556Z" fill="white"/>
<path d="M89.6459 3.944C89.6515 4.05719 89.6672 4.16926 89.6929 4.2802C89.9047 5.2025 90.1328 6.14105 90.3771 7.09584C90.8399 8.90682 91.4148 10.6836 92.1018 12.4262C92.1054 12.435 92.1068 12.4445 92.1058 12.4539C92.1049 12.4634 92.1016 12.4724 92.0962 12.4803C92.0909 12.4881 92.0837 12.4945 92.0753 12.4988C92.0668 12.5032 92.0575 12.5054 92.048 12.5052C91.2366 12.4985 90.4287 12.517 89.624 12.5607C89.4526 12.5708 89.2761 12.5837 89.0945 12.5994C87.3743 12.7484 85.7191 12.9916 84.1289 13.3289C83.972 13.3625 83.9474 13.3205 84.0549 13.2028C84.8091 12.3736 85.528 11.4776 86.2116 10.515C86.3215 10.3614 86.3282 10.2034 86.2318 10.0409C86.2094 10.0017 86.1724 9.97704 86.1209 9.96696C85.9214 9.92885 85.7617 9.99217 85.6418 10.1569C84.6859 11.4782 83.6806 12.6705 82.6261 13.734C82.591 13.7693 82.5641 13.8119 82.5473 13.8588C82.5305 13.9056 82.5242 13.9556 82.5288 14.0052C82.5335 14.0547 82.549 14.1027 82.5742 14.1456C82.5994 14.1885 82.6338 14.2253 82.6748 14.2535L85.1257 15.9412C85.305 16.0644 85.4709 16.0493 85.6233 15.8958C85.6468 15.8734 85.6642 15.847 85.6754 15.8168C85.7426 15.6442 85.6995 15.5058 85.546 15.4016L83.712 14.1492C83.7066 14.1454 83.7025 14.1401 83.7001 14.1339C83.6977 14.1277 83.6972 14.121 83.6986 14.1145C83.7001 14.108 83.7034 14.1022 83.7082 14.0976C83.7129 14.093 83.7189 14.0899 83.7255 14.0887C84.5391 13.9161 85.3297 13.7609 86.0973 13.6231C86.4302 13.5626 86.7579 13.6063 87.0992 13.5542C88.695 13.3121 90.3401 13.1894 92.0345 13.186C92.042 13.1859 92.0493 13.1877 92.0558 13.1912C92.0624 13.1946 92.0679 13.1997 92.072 13.2059C92.076 13.2122 92.0784 13.2193 92.0789 13.2267C92.0794 13.2341 92.078 13.2415 92.0749 13.2482C91.9471 13.5206 91.8446 13.8102 91.7673 14.1173C91.133 16.6287 90.4651 19.2067 89.7635 21.8515C89.7322 21.9669 89.6974 21.968 89.6593 21.8549L88.6944 19.0392C88.6261 18.842 88.4888 18.7618 88.2826 18.7988C88.2445 18.8056 88.2081 18.8184 88.1733 18.8375C88.1144 18.8709 88.0688 18.9235 88.044 18.9865C88.0192 19.0496 88.0168 19.1192 88.0372 19.1838C88.3667 20.2193 88.7163 21.2419 89.0861 22.2516C89.2475 22.6903 89.498 23.3123 90.1166 22.9777C91.1812 22.4028 92.2979 21.7904 93.4667 21.1404C93.5154 21.114 93.5546 21.0731 93.579 21.0234C93.6034 20.9737 93.6117 20.9177 93.6029 20.8631C93.5872 20.7656 93.5508 20.6899 93.4936 20.6361C93.3648 20.5129 93.2224 20.4944 93.0667 20.5807L90.5418 21.9826C90.4712 22.0218 90.4455 22.0022 90.4645 21.9238C90.9217 20.0915 91.4238 18.1657 91.9707 16.1462C92.0872 15.7137 92.1931 15.2643 92.2884 14.7981C92.3915 14.2893 92.5433 13.8198 92.7439 13.3894C92.7507 13.3751 92.7603 13.3622 92.7722 13.3517C92.7841 13.3411 92.798 13.3331 92.8131 13.328C92.8282 13.323 92.8441 13.3211 92.86 13.3224C92.8758 13.3237 92.8912 13.3282 92.9053 13.3356L95.1175 14.5056C95.1404 14.5187 95.1671 14.5234 95.1931 14.5191C95.2413 14.5112 95.2839 14.523 95.3209 14.5544C95.3545 14.5824 95.3915 14.6065 95.4318 14.6266C96.4113 15.1029 97.4131 15.6156 98.4374 16.1647C99.2801 16.6164 100.088 17.1246 100.861 17.6894C100.916 17.7297 100.911 17.7572 100.845 17.7717L97.6373 18.461C97.4714 18.4968 97.3778 18.5988 97.3565 18.7669C97.3521 18.8061 97.3565 18.8437 97.37 18.8795C97.4451 19.0824 97.5885 19.1602 97.8003 19.1132C99.1709 18.8061 100.578 18.5125 102.023 18.2323C102.33 18.1718 102.467 18.025 102.433 17.7919C102.428 17.7541 102.415 17.7182 102.396 17.686L100.529 14.5359C100.423 14.3566 100.27 14.2927 100.068 14.3442C100.026 14.3543 99.9934 14.3734 99.9688 14.4014C99.8522 14.5314 99.8276 14.6575 99.8948 14.7796C100.333 15.5629 100.788 16.3267 101.26 17.0708C101.303 17.1403 101.292 17.1515 101.224 17.1044C100.369 16.4981 99.5379 15.9809 98.7299 15.5529C96.864 14.5644 95.0048 13.6214 93.1524 12.7238C93.1451 12.7205 93.1388 12.7154 93.1342 12.7088C93.1297 12.7023 93.127 12.6946 93.1264 12.6866C93.1259 12.6787 93.1276 12.6707 93.1313 12.6636C93.135 12.6565 93.1405 12.6506 93.1474 12.6464C96.0767 10.7469 98.7086 8.53812 101.043 6.02001C101.069 5.992 101.076 5.99648 101.065 6.03346L100.342 8.39692C100.283 8.59303 100.34 8.74544 100.513 8.85415C100.541 8.87208 100.572 8.88329 100.606 8.88777C100.761 8.91018 100.867 8.8491 100.925 8.70454C101.176 8.09154 101.387 7.45221 101.557 6.78654C101.67 6.34276 101.807 5.89954 101.967 5.45689C101.987 5.40272 101.994 5.34465 101.987 5.28745C101.98 5.23025 101.959 5.17554 101.927 5.12782C101.894 5.08009 101.851 5.04069 101.801 5.01287C101.75 4.98504 101.694 4.96957 101.636 4.96772L97.5784 4.83492C97.333 4.82708 97.2064 4.94531 97.1985 5.18961L97.1968 5.26525C97.1901 5.44008 97.2742 5.52973 97.449 5.53421L100.414 5.61994C100.421 5.62017 100.428 5.62242 100.433 5.62642C100.439 5.63041 100.443 5.63598 100.446 5.64243C100.448 5.64888 100.449 5.65592 100.448 5.66268C100.446 5.66944 100.443 5.67562 100.438 5.68046C99.9088 6.21165 99.3675 6.74788 98.8139 7.28916C98.2525 7.83603 97.7135 8.32968 97.1968 8.7701C95.8005 9.95687 94.3358 11.0529 92.8028 12.0581C92.7903 12.0664 92.776 12.0717 92.7612 12.0737C92.7463 12.0757 92.7312 12.0743 92.717 12.0696C92.7027 12.0649 92.6897 12.057 92.679 12.0466C92.6682 12.0362 92.66 12.0234 92.6548 12.0093C91.6821 9.3859 90.9139 6.73107 90.3502 4.04486C90.3267 3.93616 90.3524 3.92271 90.4275 4.00452C90.9285 4.54804 91.3795 5.10948 91.7807 5.68886C91.8187 5.74324 91.8745 5.78299 91.9387 5.80149C92.0799 5.84183 92.187 5.8295 92.2598 5.76451C92.4223 5.61658 92.4419 5.45184 92.3186 5.2703C91.6205 4.24602 90.813 3.35062 89.8963 2.58409C89.7434 2.45634 89.6358 2.3269 89.4139 2.38742C89.3615 2.40198 89.3142 2.43112 89.2773 2.47153C89.2405 2.51194 89.2156 2.562 89.2055 2.61603C88.9443 4.03702 88.5207 5.39077 87.9346 6.67728C87.9152 6.71958 87.9073 6.76628 87.9117 6.81263C87.9161 6.85898 87.9327 6.90334 87.9598 6.94119C88.0248 7.03084 88.1022 7.08296 88.1918 7.09752C88.3622 7.12442 88.4854 7.05998 88.5616 6.90421C88.9718 6.06036 89.2609 5.27142 89.429 4.53739C89.4761 4.33119 89.5327 4.13115 89.5988 3.93728C89.6257 3.85771 89.6414 3.85996 89.6459 3.944Z" fill="#FF0000" stroke="#FF0000" stroke-width="0.336196"/>
<path d="M89.5988 3.93728C89.5327 4.13115 89.4761 4.33119 89.429 4.53739C89.2609 5.27142 88.9718 6.06036 88.5616 6.90421C88.4854 7.05998 88.3622 7.12442 88.1918 7.09752C88.1022 7.08296 88.0248 7.03084 87.9598 6.94119C87.9327 6.90334 87.9161 6.85898 87.9117 6.81263C87.9073 6.76628 87.9152 6.71958 87.9346 6.67728C88.5207 5.39077 88.9443 4.03702 89.2055 2.61603C89.2156 2.562 89.2405 2.51194 89.2773 2.47153C89.3142 2.43112 89.3615 2.40198 89.4139 2.38742C89.6358 2.3269 89.7434 2.45634 89.8963 2.58409C90.813 3.35062 91.6205 4.24602 92.3186 5.2703C92.4419 5.45184 92.4223 5.61658 92.2598 5.76451C92.187 5.8295 92.0799 5.84183 91.9387 5.80149C91.8745 5.78299 91.8187 5.74324 91.7807 5.68886C91.3795 5.10948 90.9285 4.54804 90.4275 4.00452C90.3524 3.92271 90.3267 3.93616 90.3502 4.04486C90.9139 6.73107 91.6821 9.3859 92.6548 12.0093C92.66 12.0234 92.6682 12.0362 92.679 12.0466C92.6897 12.057 92.7027 12.0649 92.717 12.0696C92.7312 12.0743 92.7463 12.0757 92.7612 12.0737C92.776 12.0717 92.7903 12.0664 92.8028 12.0581C94.3358 11.0529 95.8005 9.95687 97.1968 8.7701C97.7135 8.32968 98.2525 7.83603 98.8139 7.28916C99.3675 6.74788 99.9088 6.21165 100.438 5.68046C100.443 5.67562 100.446 5.66944 100.448 5.66268C100.449 5.65592 100.448 5.64888 100.446 5.64243C100.443 5.63598 100.439 5.63041 100.433 5.62642C100.428 5.62242 100.421 5.62017 100.414 5.61994L97.449 5.53421C97.2742 5.52973 97.1901 5.44008 97.1968 5.26525L97.1985 5.18961C97.2064 4.94531 97.333 4.82708 97.5784 4.83492L101.636 4.96772C101.694 4.96957 101.75 4.98504 101.801 5.01287C101.851 5.04069 101.894 5.08009 101.927 5.12782C101.959 5.17554 101.98 5.23025 101.987 5.28745C101.994 5.34465 101.987 5.40272 101.967 5.45689C101.807 5.89954 101.67 6.34276 101.557 6.78654C101.387 7.45221 101.176 8.09154 100.925 8.70454C100.867 8.8491 100.761 8.91018 100.606 8.88777C100.572 8.88329 100.541 8.87208 100.513 8.85415C100.34 8.74544 100.283 8.59303 100.342 8.39692L101.065 6.03346C101.076 5.99648 101.069 5.992 101.043 6.02001C98.7086 8.53812 96.0767 10.7469 93.1474 12.6464C93.1405 12.6506 93.135 12.6565 93.1313 12.6636C93.1276 12.6707 93.1259 12.6787 93.1264 12.6866C93.127 12.6946 93.1297 12.7023 93.1342 12.7088C93.1388 12.7154 93.1451 12.7205 93.1524 12.7238C95.0048 13.6214 96.864 14.5644 98.7299 15.5529C99.5379 15.9809 100.369 16.4981 101.224 17.1044C101.292 17.1515 101.303 17.1403 101.26 17.0708C100.788 16.3267 100.333 15.5629 99.8948 14.7796C99.8276 14.6575 99.8522 14.5314 99.9688 14.4014C99.9934 14.3734 100.026 14.3543 100.068 14.3442C100.27 14.2927 100.423 14.3566 100.529 14.5359L102.396 17.686C102.415 17.7182 102.428 17.7541 102.433 17.7919C102.467 18.025 102.33 18.1718 102.023 18.2323C100.578 18.5125 99.1709 18.8061 97.8003 19.1132C97.5885 19.1602 97.4451 19.0824 97.37 18.8795C97.3565 18.8437 97.3521 18.8061 97.3565 18.7669C97.3778 18.5988 97.4714 18.4968 97.6373 18.461L100.845 17.7717C100.911 17.7572 100.916 17.7297 100.861 17.6894C100.088 17.1246 99.2801 16.6164 98.4374 16.1647C97.4131 15.6156 96.4113 15.1029 95.4318 14.6266C95.3915 14.6065 95.3545 14.5824 95.3209 14.5544C95.2839 14.523 95.2413 14.5112 95.1931 14.5191C95.1671 14.5234 95.1404 14.5187 95.1175 14.5056L92.9053 13.3356C92.8912 13.3282 92.8758 13.3237 92.86 13.3224C92.8441 13.3211 92.8282 13.323 92.8131 13.328C92.798 13.3331 92.7841 13.3411 92.7722 13.3517C92.7603 13.3622 92.7507 13.3751 92.7439 13.3894C92.5433 13.8198 92.3915 14.2893 92.2884 14.7981C92.1931 15.2643 92.0872 15.7137 91.9707 16.1462C91.4238 18.1657 90.9217 20.0915 90.4645 21.9238C90.4455 22.0022 90.4712 22.0218 90.5418 21.9826L93.0667 20.5807C93.2224 20.4944 93.3648 20.5129 93.4936 20.6361C93.5508 20.6899 93.5872 20.7656 93.6029 20.8631C93.6117 20.9177 93.6034 20.9737 93.579 21.0234C93.5546 21.0731 93.5154 21.114 93.4667 21.1404C92.2979 21.7904 91.1812 22.4028 90.1166 22.9777C89.498 23.3123 89.2475 22.6903 89.0861 22.2516C88.7163 21.2419 88.3667 20.2193 88.0372 19.1838C88.0168 19.1192 88.0192 19.0496 88.044 18.9865C88.0688 18.9235 88.1144 18.8709 88.1733 18.8375C88.2081 18.8184 88.2445 18.8056 88.2826 18.7988C88.4888 18.7618 88.6261 18.842 88.6944 19.0392L89.6593 21.8549C89.6974 21.968 89.7322 21.9669 89.7635 21.8515C90.4651 19.2067 91.133 16.6287 91.7673 14.1173C91.8446 13.8102 91.9471 13.5206 92.0749 13.2482C92.078 13.2415 92.0794 13.2341 92.0789 13.2267C92.0784 13.2193 92.076 13.2122 92.072 13.2059C92.0679 13.1997 92.0624 13.1946 92.0558 13.1912C92.0493 13.1877 92.042 13.1859 92.0345 13.186C90.3401 13.1894 88.695 13.3121 87.0992 13.5542C86.7579 13.6063 86.4302 13.5626 86.0973 13.6231C85.3297 13.7609 84.5391 13.9161 83.7255 14.0887C83.7189 14.0899 83.7129 14.093 83.7082 14.0976C83.7034 14.1022 83.7001 14.108 83.6986 14.1145C83.6972 14.121 83.6977 14.1277 83.7001 14.1339C83.7025 14.1401 83.7066 14.1454 83.712 14.1492L85.546 15.4016C85.6995 15.5058 85.7426 15.6442 85.6754 15.8168C85.6642 15.847 85.6468 15.8734 85.6233 15.8958C85.4709 16.0493 85.305 16.0644 85.1257 15.9412L82.6748 14.2535C82.6338 14.2253 82.5994 14.1885 82.5742 14.1456C82.549 14.1027 82.5335 14.0547 82.5288 14.0052C82.5242 13.9556 82.5305 13.9056 82.5473 13.8588C82.5641 13.8119 82.591 13.7693 82.6261 13.734C83.6806 12.6705 84.6859 11.4782 85.6418 10.1569C85.7617 9.99217 85.9214 9.92885 86.1209 9.96696C86.1724 9.97704 86.2094 10.0017 86.2318 10.0409C86.3282 10.2034 86.3215 10.3614 86.2116 10.515C85.528 11.4776 84.8091 12.3736 84.0549 13.2028C83.9474 13.3205 83.972 13.3625 84.1289 13.3289C85.7191 12.9916 87.3743 12.7484 89.0945 12.5994C89.2761 12.5837 89.4526 12.5708 89.624 12.5607C90.4287 12.517 91.2366 12.4985 92.048 12.5052C92.0575 12.5054 92.0668 12.5032 92.0753 12.4988C92.0837 12.4945 92.0909 12.4881 92.0962 12.4803C92.1016 12.4724 92.1049 12.4634 92.1058 12.4539C92.1068 12.4445 92.1054 12.435 92.1018 12.4262C91.4148 10.6836 90.8399 8.90682 90.3771 7.09584C90.1328 6.14105 89.9047 5.2025 89.6929 4.2802C89.6672 4.16926 89.6515 4.05719 89.6459 3.944C89.6414 3.85996 89.6257 3.85771 89.5988 3.93728Z" fill="#FF0000"/>
<path d="M89.6459 3.94425C89.6515 4.05743 89.6672 4.1695 89.6929 4.28044C89.9047 5.20274 90.1328 6.14129 90.3771 7.09609C90.8399 8.90706 91.4148 10.6839 92.1018 12.4265C92.1054 12.4352 92.1068 12.4448 92.1058 12.4542C92.1049 12.4636 92.1016 12.4727 92.0962 12.4805C92.0909 12.4883 92.0837 12.4947 92.0753 12.4991C92.0668 12.5034 92.0575 12.5056 92.048 12.5055C91.2366 12.4988 90.4287 12.5172 89.624 12.561C89.4526 12.571 89.2761 12.5839 89.0945 12.5996C87.3743 12.7487 85.7191 12.9918 84.1289 13.3292C83.972 13.3628 83.9474 13.3208 84.0549 13.2031C84.8091 12.3738 85.528 11.4778 86.2116 10.5152C86.3215 10.3617 86.3282 10.2037 86.2318 10.0412C86.2094 10.0019 86.1724 9.97729 86.1209 9.9672C85.9214 9.9291 85.7617 9.99242 85.6418 10.1572C84.6859 11.4784 83.6806 12.6708 82.6261 13.7343C82.591 13.7696 82.5641 13.8122 82.5473 13.859C82.5305 13.9059 82.5242 13.9558 82.5288 14.0054C82.5335 14.055 82.549 14.1029 82.5742 14.1458C82.5994 14.1887 82.6338 14.2255 82.6748 14.2537L85.1257 15.9414C85.305 16.0647 85.4709 16.0495 85.6233 15.896C85.6468 15.8736 85.6642 15.8473 85.6754 15.817C85.7426 15.6444 85.6995 15.506 85.546 15.4018L83.712 14.1495C83.7066 14.1457 83.7025 14.1403 83.7001 14.1341C83.6977 14.128 83.6972 14.1212 83.6986 14.1148C83.7001 14.1083 83.7034 14.1024 83.7082 14.0978C83.7129 14.0932 83.7189 14.0901 83.7255 14.089C84.5391 13.9164 85.3297 13.7612 86.0973 13.6233C86.4302 13.5628 86.7579 13.6065 87.0992 13.5544C88.695 13.3124 90.3401 13.1896 92.0345 13.1863C92.042 13.1862 92.0493 13.1879 92.0558 13.1914C92.0624 13.1949 92.0679 13.2 92.072 13.2062C92.076 13.2124 92.0784 13.2196 92.0789 13.227C92.0794 13.2344 92.078 13.2418 92.0749 13.2485C91.9471 13.5208 91.8446 13.8105 91.7673 14.1175C91.133 16.6289 90.4651 19.207 89.7635 21.8517C89.7322 21.9672 89.6974 21.9683 89.6593 21.8551L88.6944 19.0395C88.6261 18.8422 88.4888 18.7621 88.2826 18.7991C88.2445 18.8058 88.2081 18.8187 88.1733 18.8377C88.1144 18.8712 88.0688 18.9238 88.044 18.9868C88.0192 19.0498 88.0168 19.1194 88.0372 19.184C88.3667 20.2195 88.7163 21.2421 89.0861 22.2518C89.2475 22.6905 89.498 23.3125 90.1166 22.978C91.1812 22.4031 92.2979 21.7907 93.4667 21.1407C93.5154 21.1142 93.5546 21.0733 93.579 21.0237C93.6034 20.974 93.6117 20.918 93.6029 20.8633C93.5872 20.7658 93.5508 20.6902 93.4936 20.6364C93.3648 20.5131 93.2224 20.4946 93.0667 20.5809L90.5418 21.9828C90.4712 22.0221 90.4455 22.0025 90.4645 21.924C90.9217 20.0917 91.4238 18.1659 91.9707 16.1465C92.0872 15.7139 92.1931 15.2645 92.2884 14.7983C92.3915 14.2896 92.5433 13.82 92.7439 13.3897C92.7507 13.3753 92.7603 13.3625 92.7722 13.3519C92.7841 13.3414 92.798 13.3333 92.8131 13.3283C92.8282 13.3233 92.8441 13.3213 92.86 13.3227C92.8758 13.324 92.8912 13.3285 92.9053 13.3359L95.1175 14.5058C95.1404 14.5189 95.1671 14.5237 95.1931 14.5193C95.2413 14.5115 95.2839 14.5232 95.3209 14.5546C95.3545 14.5826 95.3915 14.6067 95.4318 14.6269C96.4113 15.1032 97.4131 15.6159 98.4374 16.165C99.2801 16.6166 100.088 17.1248 100.861 17.6896C100.916 17.73 100.911 17.7574 100.845 17.772L97.6373 18.4612C97.4714 18.4971 97.3778 18.599 97.3565 18.7671C97.3521 18.8064 97.3565 18.8439 97.37 18.8798C97.4451 19.0826 97.5885 19.1605 97.8003 19.1134C99.1709 18.8064 100.578 18.5127 102.023 18.2326C102.33 18.1721 102.467 18.0253 102.433 17.7922C102.428 17.7544 102.415 17.7184 102.396 17.6863L100.529 14.5361C100.423 14.3568 100.27 14.2929 100.068 14.3445C100.026 14.3546 99.9934 14.3736 99.9688 14.4016C99.8522 14.5316 99.8276 14.6577 99.8948 14.7798C100.333 15.5632 100.788 16.3269 101.26 17.071C101.303 17.1405 101.292 17.1517 101.224 17.1046C100.369 16.4984 99.5379 15.9812 98.7299 15.5531C96.864 14.5647 95.0048 13.6217 93.1524 12.724C93.1451 12.7208 93.1388 12.7156 93.1342 12.7091C93.1297 12.7025 93.127 12.6948 93.1264 12.6869C93.1259 12.6789 93.1276 12.6709 93.1313 12.6639C93.135 12.6568 93.1405 12.6508 93.1474 12.6467C96.0767 10.7472 98.7086 8.53837 101.043 6.02026C101.069 5.99224 101.076 5.99673 101.065 6.03371L100.342 8.39716C100.283 8.59328 100.34 8.74569 100.513 8.85439C100.541 8.87232 100.572 8.88353 100.606 8.88801C100.761 8.91043 100.867 8.84935 100.925 8.70478C101.176 8.09179 101.387 7.45246 101.557 6.78679C101.67 6.34301 101.807 5.89979 101.967 5.45713C101.987 5.40296 101.994 5.34489 101.987 5.2877C101.98 5.2305 101.959 5.17579 101.927 5.12806C101.894 5.08033 101.851 5.04094 101.801 5.01311C101.75 4.98528 101.694 4.96981 101.636 4.96796L97.5784 4.83517C97.333 4.82732 97.2064 4.94555 97.1985 5.18986L97.1968 5.2655C97.1901 5.44032 97.2742 5.52997 97.449 5.53446L100.414 5.62019C100.421 5.62041 100.428 5.62266 100.433 5.62666C100.439 5.63066 100.443 5.63623 100.446 5.64267C100.448 5.64912 100.449 5.65616 100.448 5.66292C100.446 5.66968 100.443 5.67586 100.438 5.6807C99.9088 6.21189 99.3675 6.74812 98.8139 7.2894C98.2525 7.83628 97.7135 8.32993 97.1968 8.77034C95.8005 9.95711 94.3358 11.0531 92.8028 12.0583C92.7903 12.0666 92.776 12.0719 92.7612 12.0739C92.7463 12.0759 92.7312 12.0745 92.717 12.0698C92.7027 12.0651 92.6897 12.0573 92.679 12.0469C92.6682 12.0364 92.66 12.0237 92.6548 12.0096C91.6821 9.38614 90.9139 6.73131 90.3502 4.04511C90.3267 3.9364 90.3524 3.92296 90.4275 4.00476C90.9285 4.54828 91.3795 5.10973 91.7807 5.68911C91.8187 5.74348 91.8745 5.78324 91.9387 5.80173C92.0799 5.84208 92.187 5.82975 92.2598 5.76475C92.4223 5.61682 92.4419 5.45209 92.3186 5.27054C91.6205 4.24626 90.813 3.35086 89.8963 2.58434C89.7434 2.45658 89.6358 2.32714 89.4139 2.38766C89.3615 2.40223 89.3142 2.43137 89.2773 2.47178C89.2405 2.51219 89.2156 2.56225 89.2055 2.61627C88.9443 4.03726 88.5207 5.39101 87.9346 6.67752C87.9152 6.71983 87.9073 6.76652 87.9117 6.81288C87.9161 6.85923 87.9327 6.90358 87.9598 6.94144C88.0248 7.03109 88.1022 7.0832 88.1918 7.09777C88.3622 7.12466 88.4854 7.06023 88.5616 6.90446C88.9718 6.0606 89.2609 5.27166 89.429 4.53763C89.4761 4.33143 89.5327 4.1314 89.5988 3.93752C89.6257 3.85796 89.6414 3.8602 89.6459 3.94425Z" fill="#0029FF" stroke="#0029FF" stroke-width="0.336196"/>
<path d="M89.6459 3.94327C89.6515 4.05646 89.6672 4.16852 89.6929 4.27947C89.9047 5.20177 90.1328 6.14031 90.3771 7.09511C90.8399 8.90609 91.4148 10.6829 92.1018 12.4255C92.1054 12.4343 92.1068 12.4438 92.1058 12.4532C92.1049 12.4626 92.1016 12.4717 92.0962 12.4795C92.0909 12.4874 92.0837 12.4937 92.0753 12.4981C92.0668 12.5025 92.0575 12.5047 92.048 12.5045C91.2366 12.4978 90.4287 12.5163 89.624 12.56C89.4526 12.5701 89.2761 12.583 89.0945 12.5986C87.3743 12.7477 85.7191 12.9909 84.1289 13.3282C83.972 13.3618 83.9474 13.3198 84.0549 13.2021C84.8091 12.3728 85.528 11.4769 86.2116 10.5142C86.3214 10.3607 86.3282 10.2027 86.2318 10.0402C86.2094 10.001 86.1724 9.97631 86.1209 9.96622C85.9214 9.92812 85.7617 9.99144 85.6418 10.1562C84.6859 11.4774 83.6806 12.6698 82.6261 13.7333C82.591 13.7686 82.5641 13.8112 82.5473 13.858C82.5305 13.9049 82.5242 13.9549 82.5288 14.0044C82.5335 14.054 82.549 14.1019 82.5742 14.1448C82.5994 14.1877 82.6338 14.2246 82.6748 14.2527L85.1257 15.9404C85.305 16.0637 85.4709 16.0486 85.6233 15.895C85.6468 15.8726 85.6642 15.8463 85.6754 15.816C85.7426 15.6435 85.6995 15.5051 85.546 15.4008L83.712 14.1485C83.7066 14.1447 83.7025 14.1393 83.7001 14.1332C83.6977 14.127 83.6972 14.1202 83.6986 14.1138C83.7001 14.1073 83.7034 14.1014 83.7082 14.0968C83.7129 14.0922 83.7189 14.0892 83.7255 14.088C84.5391 13.9154 85.3297 13.7602 86.0973 13.6224C86.4302 13.5618 86.7579 13.6055 87.0992 13.5534C88.695 13.3114 90.3401 13.1887 92.0345 13.1853C92.042 13.1852 92.0493 13.1869 92.0558 13.1904C92.0624 13.1939 92.0679 13.199 92.072 13.2052C92.076 13.2114 92.0784 13.2186 92.0789 13.226C92.0794 13.2334 92.078 13.2408 92.0749 13.2475C91.9471 13.5198 91.8446 13.8095 91.7673 14.1166C91.133 16.628 90.4651 19.206 89.7635 21.8508C89.7322 21.9662 89.6974 21.9673 89.6593 21.8541L88.6944 19.0385C88.6261 18.8412 88.4888 18.7611 88.2826 18.7981C88.2445 18.8048 88.2081 18.8177 88.1733 18.8368C88.1144 18.8702 88.0688 18.9228 88.044 18.9858C88.0192 19.0488 88.0168 19.1185 88.0372 19.183C88.3667 20.2185 88.7163 21.2411 89.0861 22.2508C89.2475 22.6896 89.4979 23.3115 90.1165 22.977C91.1812 22.4021 92.2979 21.7897 93.4667 21.1397C93.5154 21.1133 93.5546 21.0724 93.579 21.0227C93.6034 20.973 93.6117 20.917 93.6029 20.8623C93.5872 20.7648 93.5508 20.6892 93.4936 20.6354C93.3648 20.5121 93.2224 20.4936 93.0667 20.5799L90.5418 21.9819C90.4712 22.0211 90.4455 22.0015 90.4645 21.923C90.9217 20.0908 91.4238 18.1649 91.9707 16.1455C92.0872 15.7129 92.1931 15.2636 92.2884 14.7974C92.3915 14.2886 92.5433 13.819 92.7439 13.3887C92.7507 13.3743 92.7603 13.3615 92.7722 13.3509C92.7841 13.3404 92.798 13.3323 92.8131 13.3273C92.8282 13.3223 92.8441 13.3204 92.86 13.3217C92.8758 13.323 92.8912 13.3275 92.9053 13.3349L93.1524 12.723C93.1451 12.7198 93.1388 12.7146 93.1342 12.7081C93.1297 12.7015 93.127 12.6939 93.1264 12.6859C93.1261 12.6811 92.9198 12.3443 92.7553 12.0736C92.7423 12.0745 92.7293 12.0729 92.717 12.0689C92.7027 12.0642 92.6897 12.0563 92.679 12.0459C92.6682 12.0354 92.66 12.0227 92.6548 12.0086C92.6217 11.9193 92.5888 11.8299 92.5562 11.7405C92.5555 11.739 92.5552 11.7382 92.5553 11.738C91.6295 9.20264 90.8945 6.63801 90.3502 4.04413C90.3267 3.93543 90.3524 3.92198 90.4275 4.00379C90.9285 4.5473 91.3795 5.10875 91.7807 5.68813C91.8187 5.7425 91.8745 5.78226 91.9387 5.80076C92.0799 5.8411 92.187 5.82877 92.2598 5.76377C92.4223 5.61585 92.4419 5.45111 92.3186 5.26957C91.6205 4.24529 90.813 3.34989 89.8963 2.58336C89.7434 2.4556 89.6358 2.32617 89.4139 2.38668C89.3615 2.40125 89.3142 2.43039 89.2773 2.4708C89.2405 2.51121 89.2156 2.56127 89.2055 2.6153C88.9443 4.03629 88.5207 5.39004 87.9346 6.67655C87.9152 6.71885 87.9073 6.76555 87.9117 6.8119C87.9161 6.85825 87.9327 6.9026 87.9598 6.94046C88.0248 7.03011 88.1022 7.08222 88.1918 7.09679C88.3622 7.12369 88.4854 7.05925 88.5616 6.90348C88.9718 6.05963 89.2609 5.27069 89.429 4.53666C89.4761 4.33046 89.5327 4.13042 89.5988 3.93655C89.6257 3.85698 89.6414 3.85922 89.6459 3.94327Z" fill="#FF0000"/>
<path d="M92.5553 11.738C92.5589 11.7309 92.7959 12.0615 92.8028 12.0574C92.7903 12.0656 92.776 12.071 92.7612 12.073C92.7592 12.0732 92.7572 12.0734 92.7553 12.0736M92.5553 11.738C92.5552 11.7382 92.5555 11.739 92.5562 11.7405M92.5553 11.738C91.6295 9.20264 90.8945 6.63801 90.3502 4.04413M90.3502 4.04413C90.3267 3.93543 90.3524 3.92198 90.4275 4.00379C90.9285 4.5473 91.3795 5.10875 91.7807 5.68813C91.8187 5.7425 91.8745 5.78226 91.9387 5.80076C92.0799 5.8411 92.187 5.82877 92.2598 5.76377C92.4223 5.61585 92.4419 5.45111 92.3186 5.26957C91.6205 4.24529 90.813 3.34989 89.8963 2.58336C89.7434 2.4556 89.6358 2.32617 89.4139 2.38668C89.3615 2.40125 89.3142 2.43039 89.2773 2.4708C89.2405 2.51121 89.2156 2.56127 89.2055 2.6153C88.9443 4.03629 88.5207 5.39004 87.9346 6.67655C87.9152 6.71885 87.9073 6.76555 87.9117 6.8119C87.9161 6.85825 87.9327 6.9026 87.9598 6.94046C88.0248 7.03011 88.1022 7.08222 88.1918 7.09679C88.3622 7.12369 88.4854 7.05925 88.5616 6.90348C88.9718 6.05963 89.2609 5.27069 89.429 4.53666C89.4761 4.33046 89.5327 4.13042 89.5988 3.93655C89.6257 3.85698 89.6414 3.85922 89.6459 3.94327C89.6515 4.05646 89.6672 4.16852 89.6929 4.27947C89.9047 5.20177 90.1328 6.14031 90.3771 7.09511C90.8399 8.90609 91.4148 10.6829 92.1018 12.4255C92.1054 12.4343 92.1068 12.4438 92.1058 12.4532C92.1049 12.4626 92.1016 12.4717 92.0962 12.4795C92.0909 12.4874 92.0837 12.4937 92.0753 12.4981C92.0668 12.5025 92.0575 12.5047 92.048 12.5045C91.2366 12.4978 90.4287 12.5163 89.624 12.56C89.4526 12.5701 89.2761 12.583 89.0945 12.5986C87.3743 12.7477 85.7191 12.9909 84.1289 13.3282C83.972 13.3618 83.9474 13.3198 84.0549 13.2021C84.8091 12.3728 85.528 11.4769 86.2116 10.5142C86.3214 10.3607 86.3282 10.2027 86.2318 10.0402C86.2094 10.001 86.1724 9.97631 86.1209 9.96622C85.9214 9.92812 85.7617 9.99144 85.6418 10.1562C84.6859 11.4774 83.6806 12.6698 82.6261 13.7333C82.591 13.7686 82.5641 13.8112 82.5473 13.858C82.5305 13.9049 82.5242 13.9549 82.5288 14.0044C82.5335 14.054 82.549 14.1019 82.5742 14.1448C82.5994 14.1877 82.6338 14.2246 82.6748 14.2527L85.1257 15.9404C85.305 16.0637 85.4709 16.0486 85.6233 15.895C85.6468 15.8726 85.6642 15.8463 85.6754 15.816C85.7426 15.6435 85.6995 15.5051 85.546 15.4008L83.712 14.1485C83.7066 14.1447 83.7025 14.1393 83.7001 14.1332C83.6977 14.127 83.6972 14.1202 83.6986 14.1138C83.7001 14.1073 83.7034 14.1014 83.7082 14.0968C83.7129 14.0922 83.7189 14.0892 83.7255 14.088C84.5391 13.9154 85.3297 13.7602 86.0973 13.6224C86.4302 13.5618 86.7579 13.6055 87.0992 13.5534C88.695 13.3114 90.3401 13.1887 92.0345 13.1853C92.042 13.1852 92.0493 13.1869 92.0558 13.1904C92.0624 13.1939 92.0679 13.199 92.072 13.2052C92.076 13.2114 92.0784 13.2186 92.0789 13.226C92.0794 13.2334 92.078 13.2408 92.0749 13.2475C91.9471 13.5198 91.8446 13.8095 91.7673 14.1166C91.133 16.628 90.4651 19.206 89.7635 21.8508C89.7322 21.9662 89.6974 21.9673 89.6593 21.8541L88.6944 19.0385C88.6261 18.8412 88.4888 18.7611 88.2826 18.7981C88.2445 18.8048 88.2081 18.8177 88.1733 18.8368C88.1144 18.8702 88.0688 18.9228 88.044 18.9858C88.0192 19.0488 88.0168 19.1185 88.0372 19.183C88.3667 20.2185 88.7163 21.2411 89.0861 22.2508C89.2475 22.6896 89.4979 23.3115 90.1165 22.977C91.1812 22.4021 92.2979 21.7897 93.4667 21.1397C93.5154 21.1133 93.5546 21.0724 93.579 21.0227C93.6034 20.973 93.6117 20.917 93.6029 20.8623C93.5872 20.7648 93.5508 20.6892 93.4936 20.6354C93.3648 20.5121 93.2224 20.4936 93.0667 20.5799L90.5418 21.9819C90.4712 22.0211 90.4455 22.0015 90.4645 21.923C90.9217 20.0908 91.4238 18.1649 91.9707 16.1455C92.0872 15.7129 92.1931 15.2636 92.2884 14.7974C92.3915 14.2886 92.5433 13.819 92.7439 13.3887C92.7507 13.3743 92.7603 13.3615 92.7722 13.3509C92.7841 13.3404 92.798 13.3323 92.8131 13.3273C92.8282 13.3223 92.8441 13.3204 92.86 13.3217C92.8758 13.323 92.8912 13.3275 92.9053 13.3349L93.1524 12.723C93.1451 12.7198 93.1388 12.7146 93.1342 12.7081C93.1297 12.7015 93.127 12.6939 93.1264 12.6859C93.1261 12.6811 92.9198 12.3443 92.7553 12.0736M90.3502 4.04413C90.8947 6.63886 91.63 9.20432 92.5562 11.7405M92.7553 12.0736C92.7423 12.0745 92.7293 12.0729 92.717 12.0689C92.7027 12.0642 92.6897 12.0563 92.679 12.0459C92.6682 12.0354 92.66 12.0227 92.6548 12.0086C92.6217 11.9193 92.5888 11.8299 92.5562 11.7405M92.7553 12.0736C92.6525 11.9044 92.566 11.7611 92.5562 11.7405" stroke="#FF0000" stroke-width="0.336196"/>
<path d="M122.38 9.33434C123.092 7.99964 123.368 6.73387 123.037 5.23443C122.667 3.55905 121.737 2.33978 120.247 1.57662C119.492 1.18887 118.612 0.996681 117.604 1.00004C115.066 1.00565 112.563 1.00565 110.095 1.00004C110.032 1.00004 110.001 1.03142 110.001 1.09418V19.7833C110.001 19.8192 110.019 19.8365 110.055 19.8354C112.649 19.8209 115.248 19.8231 117.853 19.8422C119.031 19.85 119.91 19.7643 120.49 19.585C123.454 18.6671 125.041 15.791 124.417 12.7703C124.14 11.4244 123.47 10.3222 122.407 9.46378C122.362 9.42792 122.353 9.38477 122.38 9.33434Z" stroke="white" stroke-width="0.336196"/>
<path d="M122.407 9.46378C123.47 10.3222 124.14 11.4244 124.417 12.7703C125.041 15.791 123.454 18.6671 120.49 19.585C119.91 19.7643 119.031 19.85 117.853 19.8422C115.248 19.8231 112.649 19.8209 110.055 19.8354C110.019 19.8365 110.001 19.8192 110.001 19.7833V1.09418C110.001 1.03142 110.032 1.00004 110.095 1.00004C112.563 1.00565 115.066 1.00565 117.604 1.00004C118.612 0.996681 119.492 1.18887 120.247 1.57662C121.737 2.33978 122.667 3.55905 123.037 5.23443C123.368 6.73387 123.092 7.99964 122.38 9.33434C122.353 9.38477 122.362 9.42792 122.407 9.46378ZM113.921 4.68475L113.914 8.1543C113.914 8.17569 113.923 8.19622 113.938 8.21135C113.953 8.22648 113.974 8.23498 113.995 8.23498L117.592 8.24171C118.031 8.24255 118.452 8.05707 118.763 7.72607C119.074 7.39507 119.249 6.94565 119.25 6.47668V6.38254C119.25 6.1503 119.208 5.92024 119.125 5.70551C119.042 5.49078 118.921 5.29558 118.768 5.13105C118.614 4.96653 118.432 4.8359 118.232 4.74663C118.031 4.65737 117.816 4.61121 117.599 4.61079L114.002 4.60406C113.98 4.60406 113.96 4.61256 113.945 4.6277C113.93 4.64283 113.921 4.66335 113.921 4.68475ZM113.914 11.9785L113.921 16.1272C113.921 16.1535 113.931 16.1787 113.95 16.1973C113.969 16.2159 113.994 16.2264 114.02 16.2264L118.567 16.2196C118.838 16.2192 119.107 16.1632 119.357 16.0549C119.607 15.9465 119.835 15.7879 120.026 15.5881C120.217 15.3883 120.369 15.1512 120.472 14.8904C120.576 14.6296 120.629 14.3501 120.628 14.068V14.0176C120.627 13.4478 120.409 12.9018 120.021 12.4995C119.633 12.0973 119.108 11.8718 118.561 11.8726L114.013 11.8793C113.987 11.8793 113.962 11.8898 113.943 11.9084C113.925 11.927 113.914 11.9522 113.914 11.9785Z" fill="white"/>
<path d="M113.921 4.68493L113.914 8.15402C113.914 8.17542 113.923 8.19594 113.938 8.21107C113.953 8.2262 113.973 8.23469 113.995 8.23469L117.592 8.24142C118.03 8.24226 118.451 8.05681 118.762 7.72585C119.073 7.39489 119.248 6.94553 119.249 6.47662V6.3825C119.249 6.15028 119.207 5.92025 119.124 5.70555C119.042 5.49085 118.92 5.29567 118.767 5.13117C118.614 4.96666 118.431 4.83605 118.231 4.7468C118.03 4.65754 117.815 4.61139 117.598 4.61097L114.001 4.60425C113.98 4.60425 113.96 4.61275 113.944 4.62788C113.929 4.64301 113.921 4.66353 113.921 4.68493Z" stroke="white" stroke-width="0.336196"/>
<path d="M113.914 11.9787L113.921 16.1268C113.921 16.1531 113.931 16.1783 113.95 16.1969C113.968 16.2155 113.994 16.226 114.02 16.226L118.566 16.2193C118.837 16.2188 119.106 16.1629 119.356 16.0545C119.606 15.9462 119.834 15.7876 120.025 15.5878C120.216 15.388 120.368 15.151 120.471 14.8902C120.575 14.6294 120.627 14.35 120.627 14.0679V14.0175C120.626 13.4478 120.408 12.9018 120.02 12.4996C119.632 12.0974 119.107 11.872 118.56 11.8728L114.013 11.8795C113.987 11.8795 113.962 11.89 113.943 11.9086C113.925 11.9272 113.914 11.9524 113.914 11.9787Z" stroke="white" stroke-width="0.336196"/>
<path d="M137.848 13.2923C137.844 13.3013 137.838 13.3091 137.83 13.3146C137.821 13.3202 137.812 13.3232 137.802 13.3234C137.792 13.3236 137.783 13.3209 137.774 13.3156C137.766 13.3104 137.759 13.3029 137.755 13.2939L134.472 5.90771C134.469 5.89884 134.462 5.89128 134.454 5.88591C134.446 5.88055 134.437 5.87761 134.427 5.87745H130.467C130.458 5.87759 130.45 5.87977 130.443 5.88381C130.436 5.88785 130.429 5.89362 130.425 5.9006C130.421 5.90759 130.418 5.91557 130.417 5.92385C130.416 5.93213 130.418 5.94044 130.421 5.94805L135.787 18.0024C135.79 18.0087 135.791 18.0156 135.791 18.0225C135.791 18.0295 135.79 18.0363 135.787 18.0427L133.18 24.0455C133.176 24.0532 133.175 24.0617 133.176 24.0701C133.176 24.0785 133.179 24.0866 133.184 24.0936C133.189 24.1007 133.195 24.1064 133.202 24.1103C133.21 24.1142 133.218 24.1162 133.227 24.1161H137.185C137.195 24.1163 137.205 24.1135 137.214 24.1081C137.222 24.1027 137.229 24.095 137.233 24.0858L145.106 5.94805C145.11 5.94031 145.111 5.93184 145.11 5.92343C145.11 5.91502 145.107 5.90692 145.102 5.8999C145.097 5.89287 145.091 5.88713 145.083 5.88321C145.076 5.87929 145.068 5.87731 145.059 5.87745H141.102C141.092 5.87728 141.082 5.88007 141.074 5.88545C141.066 5.89084 141.059 5.89858 141.055 5.90771L137.848 13.2923Z" stroke="white" stroke-width="0.336196"/>
<path d="M137.848 13.2923L141.055 5.90771C141.059 5.89858 141.066 5.89084 141.074 5.88545C141.082 5.88007 141.092 5.87728 141.102 5.87745H145.059C145.068 5.87731 145.076 5.87929 145.083 5.88321C145.091 5.88713 145.097 5.89287 145.102 5.8999C145.107 5.90692 145.11 5.91502 145.11 5.92343C145.111 5.93184 145.11 5.94031 145.106 5.94805L137.233 24.0858C137.229 24.095 137.222 24.1027 137.214 24.1081C137.205 24.1135 137.195 24.1163 137.185 24.1161H133.227C133.218 24.1162 133.21 24.1142 133.202 24.1103C133.195 24.1064 133.189 24.1007 133.184 24.0936C133.179 24.0866 133.176 24.0785 133.176 24.0701C133.175 24.0617 133.176 24.0532 133.18 24.0455L135.787 18.0427C135.79 18.0363 135.791 18.0295 135.791 18.0225C135.791 18.0156 135.79 18.0087 135.787 18.0024L130.421 5.94805C130.418 5.94044 130.416 5.93213 130.417 5.92385C130.418 5.91557 130.421 5.90759 130.425 5.9006C130.429 5.89362 130.436 5.88785 130.443 5.88381C130.45 5.87977 130.458 5.87759 130.467 5.87745H134.427C134.437 5.87761 134.446 5.88055 134.454 5.88591C134.462 5.89128 134.469 5.89884 134.472 5.90771L137.755 13.2939C137.759 13.3029 137.766 13.3104 137.774 13.3156C137.783 13.3209 137.792 13.3236 137.802 13.3234C137.812 13.3232 137.821 13.3202 137.83 13.3146C137.838 13.3091 137.844 13.3013 137.848 13.2923Z" fill="white"/>
<path fill-rule="evenodd" clip-rule="evenodd" d="M151.215 5.71096H155.168C155.21 5.71115 155.251 5.72329 155.286 5.74593C155.322 5.7686 155.35 5.80083 155.367 5.83882L155.368 5.83991L158.544 12.9826L161.646 5.84469C161.663 5.80593 161.69 5.77267 161.725 5.74894C161.76 5.72498 161.802 5.71179 161.845 5.71099L161.846 5.71096H165.803L165.805 5.71099C165.84 5.71166 165.876 5.72112 165.907 5.73856C165.939 5.75598 165.965 5.78084 165.985 5.81099C166.005 5.84117 166.017 5.87566 166.02 5.91142C166.023 5.94724 166.017 5.9833 166.003 6.01644L166.003 6.01829L158.13 24.1508C158.13 24.1512 158.129 24.1516 158.129 24.152C158.113 24.1909 158.085 24.2241 158.05 24.2478C158.015 24.2718 157.974 24.285 157.931 24.2858L157.929 24.2858H153.971L153.969 24.2858C153.933 24.2851 153.898 24.2756 153.867 24.2582C153.835 24.2407 153.808 24.2158 153.789 24.1858C153.769 24.1557 153.757 24.1212 153.754 24.0853C153.751 24.0495 153.756 24.0134 153.77 23.9803L153.771 23.9784L156.356 18.0275L151.013 6.02358C151.012 6.02309 151.012 6.02259 151.012 6.0221C150.997 5.98848 150.99 5.95155 150.993 5.91469C150.996 5.87732 151.008 5.84127 151.029 5.80996C151.049 5.77865 151.077 5.75314 151.111 5.73583C151.143 5.71901 151.179 5.71046 151.215 5.71096ZM151.391 6.04715L156.682 17.9338C156.694 17.9602 156.701 17.9888 156.702 18.0181C156.704 18.0487 156.698 18.0792 156.687 18.1076L156.686 18.1103L154.15 23.9496H157.851L165.624 6.04715H161.925L158.748 13.3563C158.732 13.3952 158.704 13.4286 158.67 13.4525C158.634 13.4769 158.592 13.4903 158.549 13.491C158.506 13.4918 158.463 13.4799 158.427 13.4567C158.391 13.4336 158.362 13.4003 158.344 13.361L158.344 13.3605L155.092 6.04715H151.391Z" fill="white"/>
<path d="M158.593 13.2904L161.801 5.91087C161.804 5.90155 161.811 5.89358 161.819 5.88791C161.828 5.88224 161.838 5.87912 161.848 5.87893H165.801C165.81 5.87909 165.818 5.88133 165.826 5.88545C165.833 5.88958 165.839 5.89546 165.844 5.90259C165.849 5.90972 165.851 5.91788 165.852 5.92636C165.853 5.93483 165.852 5.94336 165.848 5.95121L157.975 24.0856C157.971 24.0949 157.964 24.1029 157.956 24.1086C157.947 24.1143 157.938 24.1174 157.928 24.1176H153.972C153.964 24.1174 153.955 24.1152 153.948 24.111C153.94 24.1069 153.934 24.101 153.93 24.0939C153.925 24.0868 153.922 24.0786 153.921 24.0701C153.921 24.0617 153.922 24.0531 153.925 24.0453L156.531 18.0459C156.533 18.0391 156.535 18.0319 156.534 18.0247C156.534 18.0174 156.532 18.0103 156.529 18.0038L151.165 5.95289C151.161 5.94484 151.16 5.93597 151.16 5.92712C151.161 5.91828 151.164 5.90975 151.169 5.90234C151.174 5.89493 151.18 5.88889 151.188 5.8848C151.196 5.8807 151.205 5.87868 151.214 5.87893H155.167C155.177 5.87897 155.187 5.88184 155.195 5.8872C155.204 5.89256 155.21 5.90019 155.214 5.90918L158.497 13.2921C158.502 13.3014 158.508 13.3092 158.517 13.3147C158.526 13.3202 158.536 13.323 158.546 13.3228C158.556 13.3227 158.566 13.3195 158.574 13.3137C158.583 13.3079 158.589 13.2998 158.593 13.2904Z" fill="white"/>
</svg>
